<?xml version="1.0" encoding="UTF-8" standalone="no"?>
<!DOCTYPE svg PUBLIC "-//W3C//DTD SVG 1.1//EN"
 "http://www.w3.org/Graphics/SVG/1.1/DTD/svg11.dtd">
<!-- Generated by graphviz version 2.36.0 (20140111.2315)
 -->
<!-- Title: controllers_diagram Pages: 1 -->
<svg width="526pt" height="438pt"
 viewBox="0.00 0.00 526.00 438.00" xmlns="http://www.w3.org/2000/svg" xmlns:xlink="http://www.w3.org/1999/xlink">
<g id="graph0" class="graph" transform="scale(1 1) rotate(0) translate(4 434)">
<title>controllers_diagram</title>
<polygon fill="none" stroke="none" points="-4,4 -4,-434 522,-434 522,4 -4,4"/>
<!-- _diagram_info -->
<g id="node1" class="node"><title>_diagram_info</title>
<text text-anchor="start" x="312" y="-191.6" font-family="Times,serif" font-size="13.00">Controllers diagram</text>
<text text-anchor="start" x="312" y="-177.6" font-family="Times,serif" font-size="13.00">Date: Dec 10 2015 &#45; 18:23</text>
<text text-anchor="start" x="312" y="-163.6" font-family="Times,serif" font-size="13.00">Migration version: 20151105212848</text>
<text text-anchor="start" x="312" y="-149.6" font-family="Times,serif" font-size="13.00">Generated by RailRoady 1.4.2</text>
<text text-anchor="start" x="312" y="-135.6" font-family="Times,serif" font-size="13.00">http://railroady.prestonlee.com</text>
</g>
<!-- ApplicationController -->
<g id="node2" class="node"><title>ApplicationController</title>
<path fill="none" stroke="black" d="M316,-0.5C316,-0.5 428,-0.5 428,-0.5 434,-0.5 440,-6.5 440,-12.5 440,-12.5 440,-82.5 440,-82.5 440,-88.5 434,-94.5 428,-94.5 428,-94.5 316,-94.5 316,-94.5 310,-94.5 304,-88.5 304,-82.5 304,-82.5 304,-12.5 304,-12.5 304,-6.5 310,-0.5 316,-0.5"/>
<text text-anchor="middle" x="372" y="-79.3" font-family="Times,serif" font-size="14.00">ApplicationController</text>
<polyline fill="none" stroke="black" points="304,-71.5 440,-71.5 "/>
<polyline fill="none" stroke="black" points="304,-47.5 440,-47.5 "/>
<polyline fill="none" stroke="black" points="304,-23.5 440,-23.5 "/>
<text text-anchor="start" x="312" y="-8.3" font-family="Times,serif" font-size="14.00">_layout</text>
</g>
<!-- EncyclopediaController -->
<g id="node3" class="node"><title>EncyclopediaController</title>
<path fill="none" stroke="black" d="M140,-336.5C140,-336.5 262,-336.5 262,-336.5 268,-336.5 274,-342.5 274,-348.5 274,-348.5 274,-417.5 274,-417.5 274,-423.5 268,-429.5 262,-429.5 262,-429.5 140,-429.5 140,-429.5 134,-429.5 128,-423.5 128,-417.5 128,-417.5 128,-348.5 128,-348.5 128,-342.5 134,-336.5 140,-336.5"/>
<text text-anchor="middle" x="201" y="-414.3" font-family="Times,serif" font-size="14.00">EncyclopediaController</text>
<polyline fill="none" stroke="black" points="128,-406.5 274,-406.5 "/>
<text text-anchor="start" x="136" y="-391.3" font-family="Times,serif" font-size="14.00">index</text>
<polyline fill="none" stroke="black" points="128,-383.5 274,-383.5 "/>
<polyline fill="none" stroke="black" points="128,-359.5 274,-359.5 "/>
<text text-anchor="start" x="136" y="-344.3" font-family="Times,serif" font-size="14.00">_layout</text>
</g>
<!-- FeedbacksController -->
<g id="node4" class="node"><title>FeedbacksController</title>
<path fill="none" stroke="black" d="M316,-240.5C316,-240.5 421,-240.5 421,-240.5 427,-240.5 433,-246.5 433,-252.5 433,-252.5 433,-381.5 433,-381.5 433,-387.5 427,-393.5 421,-393.5 421,-393.5 316,-393.5 316,-393.5 310,-393.5 304,-387.5 304,-381.5 304,-381.5 304,-252.5 304,-252.5 304,-246.5 310,-240.5 316,-240.5"/>
<text text-anchor="middle" x="368.5" y="-378.3" font-family="Times,serif" font-size="14.00">FeedbacksController</text>
<polyline fill="none" stroke="black" points="304,-370.5 433,-370.5 "/>
<text text-anchor="start" x="312" y="-355.3" font-family="Times,serif" font-size="14.00">create</text>
<text text-anchor="start" x="312" y="-340.3" font-family="Times,serif" font-size="14.00">destroy</text>
<text text-anchor="start" x="312" y="-325.3" font-family="Times,serif" font-size="14.00">index</text>
<polyline fill="none" stroke="black" points="304,-317.5 433,-317.5 "/>
<polyline fill="none" stroke="black" points="304,-293.5 433,-293.5 "/>
<text text-anchor="start" x="312" y="-278.3" font-family="Times,serif" font-size="14.00">_layout</text>
<text text-anchor="start" x="312" y="-263.3" font-family="Times,serif" font-size="14.00">feedback_params</text>
<text text-anchor="start" x="312" y="-248.3" font-family="Times,serif" font-size="14.00">set_feedback</text>
</g>
<!-- HomeController -->
<g id="node5" class="node"><title>HomeController</title>
<path fill="none" stroke="black" d="M12,-176.5C12,-176.5 94,-176.5 94,-176.5 100,-176.5 106,-182.5 106,-188.5 106,-188.5 106,-287.5 106,-287.5 106,-293.5 100,-299.5 94,-299.5 94,-299.5 12,-299.5 12,-299.5 6,-299.5 0,-293.5 0,-287.5 0,-287.5 0,-188.5 0,-188.5 0,-182.5 6,-176.5 12,-176.5"/>
<text text-anchor="middle" x="53" y="-284.3" font-family="Times,serif" font-size="14.00">HomeController</text>
<polyline fill="none" stroke="black" points="0,-276.5 106,-276.5 "/>
<text text-anchor="start" x="8" y="-261.3" font-family="Times,serif" font-size="14.00">about_us</text>
<text text-anchor="start" x="8" y="-246.3" font-family="Times,serif" font-size="14.00">index</text>
<text text-anchor="start" x="8" y="-231.3" font-family="Times,serif" font-size="14.00">partners</text>
<polyline fill="none" stroke="black" points="0,-223.5 106,-223.5 "/>
<polyline fill="none" stroke="black" points="0,-199.5 106,-199.5 "/>
<text text-anchor="start" x="8" y="-184.3" font-family="Times,serif" font-size="14.00">_layout</text>
</g>
<!-- ProfessionsController -->
<g id="node6" class="node"><title>ProfessionsController</title>
<path fill="none" stroke="black" d="M156,-96.5C156,-96.5 266,-96.5 266,-96.5 272,-96.5 278,-102.5 278,-108.5 278,-108.5 278,-297.5 278,-297.5 278,-303.5 272,-309.5 266,-309.5 266,-309.5 156,-309.5 156,-309.5 150,-309.5 144,-303.5 144,-297.5 144,-297.5 144,-108.5 144,-108.5 144,-102.5 150,-96.5 156,-96.5"/>
<text text-anchor="middle" x="211" y="-294.3" font-family="Times,serif" font-size="14.00">ProfessionsController</text>
<polyline fill="none" stroke="black" points="144,-286.5 278,-286.5 "/>
<text text-anchor="start" x="152" y="-271.3" font-family="Times,serif" font-size="14.00">create</text>
<text text-anchor="start" x="152" y="-256.3" font-family="Times,serif" font-size="14.00">destroy</text>
<text text-anchor="start" x="152" y="-241.3" font-family="Times,serif" font-size="14.00">edit</text>
<text text-anchor="start" x="152" y="-226.3" font-family="Times,serif" font-size="14.00">index</text>
<text text-anchor="start" x="152" y="-211.3" font-family="Times,serif" font-size="14.00">new</text>
<text text-anchor="start" x="152" y="-196.3" font-family="Times,serif" font-size="14.00">show</text>
<text text-anchor="start" x="152" y="-181.3" font-family="Times,serif" font-size="14.00">update</text>
<polyline fill="none" stroke="black" points="144,-173.5 278,-173.5 "/>
<polyline fill="none" stroke="black" points="144,-149.5 278,-149.5 "/>
<text text-anchor="start" x="152" y="-134.3" font-family="Times,serif" font-size="14.00">_layout</text>
<text text-anchor="start" x="152" y="-119.3" font-family="Times,serif" font-size="14.00">profession_params</text>
<text text-anchor="start" x="152" y="-104.3" font-family="Times,serif" font-size="14.00">set_profession</text>
</g>
</g>
</svg>
