<?xml version="1.0" encoding="UTF-8" standalone="no"?>
<!DOCTYPE svg PUBLIC "-//W3C//DTD SVG 1.1//EN"
 "http://www.w3.org/Graphics/SVG/1.1/DTD/svg11.dtd">
<!-- Generated by graphviz version 2.36.0 (20140111.2315)
 -->
<!-- Title: controllers_diagram Pages: 1 -->
<svg width="621pt" height="640pt"
 viewBox="0.00 0.00 621.00 640.00" xmlns="http://www.w3.org/2000/svg" xmlns:xlink="http://www.w3.org/1999/xlink">
<g id="graph0" class="graph" transform="scale(1 1) rotate(0) translate(4 636)">
<title>controllers_diagram</title>
<polygon fill="none" stroke="none" points="-4,4 -4,-636 617,-636 617,4 -4,4"/>
<!-- _diagram_info -->
<g id="node1" class="node"><title>_diagram_info</title>
<text text-anchor="start" x="399" y="-437.6" font-family="Times,serif" font-size="13.00">Controllers diagram</text>
<text text-anchor="start" x="399" y="-423.6" font-family="Times,serif" font-size="13.00">Date: Dec 14 2015 &#45; 12:45</text>
<text text-anchor="start" x="399" y="-409.6" font-family="Times,serif" font-size="13.00">Migration version: 20151211083555</text>
<text text-anchor="start" x="399" y="-395.6" font-family="Times,serif" font-size="13.00">Generated by RailRoady 1.4.2</text>
<text text-anchor="start" x="399" y="-381.6" font-family="Times,serif" font-size="13.00">http://railroady.prestonlee.com</text>
</g>
<!-- ApplicationController -->
<g id="node2" class="node"><title>ApplicationController</title>
<path fill="none" stroke="black" d="M12,-17.5C12,-17.5 124,-17.5 124,-17.5 130,-17.5 136,-23.5 136,-29.5 136,-29.5 136,-128.5 136,-128.5 136,-134.5 130,-140.5 124,-140.5 124,-140.5 12,-140.5 12,-140.5 6,-140.5 0,-134.5 0,-128.5 0,-128.5 0,-29.5 0,-29.5 0,-23.5 6,-17.5 12,-17.5"/>
<text text-anchor="middle" x="68" y="-125.3" font-family="Times,serif" font-size="14.00">ApplicationController</text>
<polyline fill="none" stroke="black" points="0,-117.5 136,-117.5 "/>
<polyline fill="none" stroke="black" points="0,-93.5 136,-93.5 "/>
<text text-anchor="start" x="8" y="-78.3" font-family="Times,serif" font-size="14.00">current_user</text>
<text text-anchor="start" x="8" y="-63.3" font-family="Times,serif" font-size="14.00">ensure_login</text>
<text text-anchor="start" x="8" y="-48.3" font-family="Times,serif" font-size="14.00">logged_in?</text>
<polyline fill="none" stroke="black" points="0,-40.5 136,-40.5 "/>
<text text-anchor="start" x="8" y="-25.3" font-family="Times,serif" font-size="14.00">_layout</text>
</g>
<!-- AttemptsController -->
<g id="node3" class="node"><title>AttemptsController</title>
<path fill="none" stroke="black" d="M165,-357.5C165,-357.5 295,-357.5 295,-357.5 301,-357.5 307,-363.5 307,-369.5 307,-369.5 307,-528.5 307,-528.5 307,-534.5 301,-540.5 295,-540.5 295,-540.5 165,-540.5 165,-540.5 159,-540.5 153,-534.5 153,-528.5 153,-528.5 153,-369.5 153,-369.5 153,-363.5 159,-357.5 165,-357.5"/>
<text text-anchor="middle" x="230" y="-525.3" font-family="Times,serif" font-size="14.00">AttemptsController</text>
<polyline fill="none" stroke="black" points="153,-517.5 307,-517.5 "/>
<text text-anchor="start" x="161" y="-502.3" font-family="Times,serif" font-size="14.00">create</text>
<text text-anchor="start" x="161" y="-487.3" font-family="Times,serif" font-size="14.00">new</text>
<polyline fill="none" stroke="black" points="153,-479.5 307,-479.5 "/>
<polyline fill="none" stroke="black" points="153,-455.5 307,-455.5 "/>
<text text-anchor="start" x="161" y="-440.3" font-family="Times,serif" font-size="14.00">_layout</text>
<text text-anchor="start" x="161" y="-425.3" font-family="Times,serif" font-size="14.00">attempt_params</text>
<text text-anchor="start" x="161" y="-410.3" font-family="Times,serif" font-size="14.00">load_active_survey</text>
<text text-anchor="start" x="161" y="-395.3" font-family="Times,serif" font-size="14.00">normalize_attempts_data</text>
<text text-anchor="start" x="161" y="-380.3" font-family="Times,serif" font-size="14.00">normalize_data!</text>
<text text-anchor="start" x="161" y="-365.3" font-family="Times,serif" font-size="14.00">params_whitelist</text>
</g>
<!-- EncyclopediaController -->
<g id="node4" class="node"><title>EncyclopediaController</title>
<path fill="none" stroke="black" d="M352,-0.5C352,-0.5 474,-0.5 474,-0.5 480,-0.5 486,-6.5 486,-12.5 486,-12.5 486,-81.5 486,-81.5 486,-87.5 480,-93.5 474,-93.5 474,-93.5 352,-93.5 352,-93.5 346,-93.5 340,-87.5 340,-81.5 340,-81.5 340,-12.5 340,-12.5 340,-6.5 346,-0.5 352,-0.5"/>
<text text-anchor="middle" x="413" y="-78.3" font-family="Times,serif" font-size="14.00">EncyclopediaController</text>
<polyline fill="none" stroke="black" points="340,-70.5 486,-70.5 "/>
<text text-anchor="start" x="348" y="-55.3" font-family="Times,serif" font-size="14.00">index</text>
<polyline fill="none" stroke="black" points="340,-47.5 486,-47.5 "/>
<polyline fill="none" stroke="black" points="340,-23.5 486,-23.5 "/>
<text text-anchor="start" x="348" y="-8.3" font-family="Times,serif" font-size="14.00">_layout</text>
</g>
<!-- FeedbacksController -->
<g id="node5" class="node"><title>FeedbacksController</title>
<path fill="none" stroke="black" d="M12,-170.5C12,-170.5 117,-170.5 117,-170.5 123,-170.5 129,-176.5 129,-182.5 129,-182.5 129,-311.5 129,-311.5 129,-317.5 123,-323.5 117,-323.5 117,-323.5 12,-323.5 12,-323.5 6,-323.5 0,-317.5 0,-311.5 0,-311.5 0,-182.5 0,-182.5 0,-176.5 6,-170.5 12,-170.5"/>
<text text-anchor="middle" x="64.5" y="-308.3" font-family="Times,serif" font-size="14.00">FeedbacksController</text>
<polyline fill="none" stroke="black" points="0,-300.5 129,-300.5 "/>
<text text-anchor="start" x="8" y="-285.3" font-family="Times,serif" font-size="14.00">create</text>
<text text-anchor="start" x="8" y="-270.3" font-family="Times,serif" font-size="14.00">destroy</text>
<text text-anchor="start" x="8" y="-255.3" font-family="Times,serif" font-size="14.00">index</text>
<polyline fill="none" stroke="black" points="0,-247.5 129,-247.5 "/>
<polyline fill="none" stroke="black" points="0,-223.5 129,-223.5 "/>
<text text-anchor="start" x="8" y="-208.3" font-family="Times,serif" font-size="14.00">_layout</text>
<text text-anchor="start" x="8" y="-193.3" font-family="Times,serif" font-size="14.00">feedback_params</text>
<text text-anchor="start" x="8" y="-178.3" font-family="Times,serif" font-size="14.00">set_feedback</text>
</g>
<!-- HomeController -->
<g id="node6" class="node"><title>HomeController</title>
<path fill="none" stroke="black" d="M29,-442.5C29,-442.5 111,-442.5 111,-442.5 117,-442.5 123,-448.5 123,-454.5 123,-454.5 123,-553.5 123,-553.5 123,-559.5 117,-565.5 111,-565.5 111,-565.5 29,-565.5 29,-565.5 23,-565.5 17,-559.5 17,-553.5 17,-553.5 17,-454.5 17,-454.5 17,-448.5 23,-442.5 29,-442.5"/>
<text text-anchor="middle" x="70" y="-550.3" font-family="Times,serif" font-size="14.00">HomeController</text>
<polyline fill="none" stroke="black" points="17,-542.5 123,-542.5 "/>
<text text-anchor="start" x="25" y="-527.3" font-family="Times,serif" font-size="14.00">about_us</text>
<text text-anchor="start" x="25" y="-512.3" font-family="Times,serif" font-size="14.00">index</text>
<text text-anchor="start" x="25" y="-497.3" font-family="Times,serif" font-size="14.00">partners</text>
<polyline fill="none" stroke="black" points="17,-489.5 123,-489.5 "/>
<polyline fill="none" stroke="black" points="17,-465.5 123,-465.5 "/>
<text text-anchor="start" x="25" y="-450.3" font-family="Times,serif" font-size="14.00">_layout</text>
</g>
<!-- ProfessionsController -->
<g id="node7" class="node"><title>ProfessionsController</title>
<path fill="none" stroke="black" d="M182,-102.5C182,-102.5 292,-102.5 292,-102.5 298,-102.5 304,-108.5 304,-114.5 304,-114.5 304,-303.5 304,-303.5 304,-309.5 298,-315.5 292,-315.5 292,-315.5 182,-315.5 182,-315.5 176,-315.5 170,-309.5 170,-303.5 170,-303.5 170,-114.5 170,-114.5 170,-108.5 176,-102.5 182,-102.5"/>
<text text-anchor="middle" x="237" y="-300.3" font-family="Times,serif" font-size="14.00">ProfessionsController</text>
<polyline fill="none" stroke="black" points="170,-292.5 304,-292.5 "/>
<text text-anchor="start" x="178" y="-277.3" font-family="Times,serif" font-size="14.00">create</text>
<text text-anchor="start" x="178" y="-262.3" font-family="Times,serif" font-size="14.00">destroy</text>
<text text-anchor="start" x="178" y="-247.3" font-family="Times,serif" font-size="14.00">edit</text>
<text text-anchor="start" x="178" y="-232.3" font-family="Times,serif" font-size="14.00">index</text>
<text text-anchor="start" x="178" y="-217.3" font-family="Times,serif" font-size="14.00">new</text>
<text text-anchor="start" x="178" y="-202.3" font-family="Times,serif" font-size="14.00">show</text>
<text text-anchor="start" x="178" y="-187.3" font-family="Times,serif" font-size="14.00">update</text>
<polyline fill="none" stroke="black" points="170,-179.5 304,-179.5 "/>
<polyline fill="none" stroke="black" points="170,-155.5 304,-155.5 "/>
<text text-anchor="start" x="178" y="-140.3" font-family="Times,serif" font-size="14.00">_layout</text>
<text text-anchor="start" x="178" y="-125.3" font-family="Times,serif" font-size="14.00">profession_params</text>
<text text-anchor="start" x="178" y="-110.3" font-family="Times,serif" font-size="14.00">set_profession</text>
</g>
<!-- SessionsController -->
<g id="node8" class="node"><title>SessionsController</title>
<path fill="none" stroke="black" d="M505,-119.5C505,-119.5 600,-119.5 600,-119.5 606,-119.5 612,-125.5 612,-131.5 612,-131.5 612,-230.5 612,-230.5 612,-236.5 606,-242.5 600,-242.5 600,-242.5 505,-242.5 505,-242.5 499,-242.5 493,-236.5 493,-230.5 493,-230.5 493,-131.5 493,-131.5 493,-125.5 499,-119.5 505,-119.5"/>
<text text-anchor="middle" x="552.5" y="-227.3" font-family="Times,serif" font-size="14.00">SessionsController</text>
<polyline fill="none" stroke="black" points="493,-219.5 612,-219.5 "/>
<text text-anchor="start" x="501" y="-204.3" font-family="Times,serif" font-size="14.00">create</text>
<text text-anchor="start" x="501" y="-189.3" font-family="Times,serif" font-size="14.00">destroy</text>
<text text-anchor="start" x="501" y="-174.3" font-family="Times,serif" font-size="14.00">new</text>
<polyline fill="none" stroke="black" points="493,-166.5 612,-166.5 "/>
<polyline fill="none" stroke="black" points="493,-142.5 612,-142.5 "/>
<text text-anchor="start" x="501" y="-127.3" font-family="Times,serif" font-size="14.00">_layout</text>
</g>
<!-- SurveysController -->
<g id="node9" class="node"><title>SurveysController</title>
<path fill="none" stroke="black" d="M352,-119.5C352,-119.5 444,-119.5 444,-119.5 450,-119.5 456,-125.5 456,-131.5 456,-131.5 456,-335.5 456,-335.5 456,-341.5 450,-347.5 444,-347.5 444,-347.5 352,-347.5 352,-347.5 346,-347.5 340,-341.5 340,-335.5 340,-335.5 340,-131.5 340,-131.5 340,-125.5 346,-119.5 352,-119.5"/>
<text text-anchor="middle" x="398" y="-332.3" font-family="Times,serif" font-size="14.00">SurveysController</text>
<polyline fill="none" stroke="black" points="340,-324.5 456,-324.5 "/>
<text text-anchor="start" x="348" y="-309.3" font-family="Times,serif" font-size="14.00">create</text>
<text text-anchor="start" x="348" y="-294.3" font-family="Times,serif" font-size="14.00">edit</text>
<text text-anchor="start" x="348" y="-279.3" font-family="Times,serif" font-size="14.00">index</text>
<text text-anchor="start" x="348" y="-264.3" font-family="Times,serif" font-size="14.00">new</text>
<text text-anchor="start" x="348" y="-249.3" font-family="Times,serif" font-size="14.00">show</text>
<text text-anchor="start" x="348" y="-234.3" font-family="Times,serif" font-size="14.00">update</text>
<polyline fill="none" stroke="black" points="340,-226.5 456,-226.5 "/>
<polyline fill="none" stroke="black" points="340,-202.5 456,-202.5 "/>
<text text-anchor="start" x="348" y="-187.3" font-family="Times,serif" font-size="14.00">_layout</text>
<text text-anchor="start" x="348" y="-172.3" font-family="Times,serif" font-size="14.00">default_redirect</text>
<text text-anchor="start" x="348" y="-157.3" font-family="Times,serif" font-size="14.00">load_survey</text>
<text text-anchor="start" x="348" y="-142.3" font-family="Times,serif" font-size="14.00">params_whitelist</text>
<text text-anchor="start" x="348" y="-127.3" font-family="Times,serif" font-size="14.00">survey_params</text>
</g>
<!-- UsersController -->
<g id="node10" class="node"><title>UsersController</title>
<path fill="none" stroke="black" d="M522,-493.5C522,-493.5 601,-493.5 601,-493.5 607,-493.5 613,-499.5 613,-505.5 613,-505.5 613,-619.5 613,-619.5 613,-625.5 607,-631.5 601,-631.5 601,-631.5 522,-631.5 522,-631.5 516,-631.5 510,-625.5 510,-619.5 510,-619.5 510,-505.5 510,-505.5 510,-499.5 516,-493.5 522,-493.5"/>
<text text-anchor="middle" x="561.5" y="-616.3" font-family="Times,serif" font-size="14.00">UsersController</text>
<polyline fill="none" stroke="black" points="510,-608.5 613,-608.5 "/>
<text text-anchor="start" x="518" y="-593.3" font-family="Times,serif" font-size="14.00">create</text>
<text text-anchor="start" x="518" y="-578.3" font-family="Times,serif" font-size="14.00">index</text>
<polyline fill="none" stroke="black" points="510,-570.5 613,-570.5 "/>
<polyline fill="none" stroke="black" points="510,-546.5 613,-546.5 "/>
<text text-anchor="start" x="518" y="-531.3" font-family="Times,serif" font-size="14.00">_layout</text>
<text text-anchor="start" x="518" y="-516.3" font-family="Times,serif" font-size="14.00">set_user</text>
<text text-anchor="start" x="518" y="-501.3" font-family="Times,serif" font-size="14.00">user_params</text>
</g>
</g>
</svg>
