<?xml version="1.0" encoding="UTF-8" standalone="no"?>
<!DOCTYPE svg PUBLIC "-//W3C//DTD SVG 1.1//EN"
 "http://www.w3.org/Graphics/SVG/1.1/DTD/svg11.dtd">
<!-- Generated by graphviz version 2.36.0 (20140111.2315)
 -->
<!-- Title: controllers_diagram Pages: 1 -->
<svg width="562pt" height="564pt"
 viewBox="0.00 0.00 562.00 564.00" xmlns="http://www.w3.org/2000/svg" xmlns:xlink="http://www.w3.org/1999/xlink">
<g id="graph0" class="graph" transform="scale(1 1) rotate(0) translate(4 560)">
<title>controllers_diagram</title>
<polygon fill="none" stroke="none" points="-4,4 -4,-560 558,-560 558,4 -4,4"/>
<!-- _diagram_info -->
<g id="node1" class="node"><title>_diagram_info</title>
<text text-anchor="start" x="312" y="-191.6" font-family="Times,serif" font-size="13.00">Controllers diagram</text>
<text text-anchor="start" x="312" y="-177.6" font-family="Times,serif" font-size="13.00">Date: Dec 11 2015 &#45; 04:37</text>
<text text-anchor="start" x="312" y="-163.6" font-family="Times,serif" font-size="13.00">Migration version: 20151211020557</text>
<text text-anchor="start" x="312" y="-149.6" font-family="Times,serif" font-size="13.00">Generated by RailRoady 1.4.2</text>
<text text-anchor="start" x="312" y="-135.6" font-family="Times,serif" font-size="13.00">http://railroady.prestonlee.com</text>
</g>
<!-- ApplicationController -->
<g id="node2" class="node"><title>ApplicationController</title>
<path fill="none" stroke="black" d="M140,-336.5C140,-336.5 252,-336.5 252,-336.5 258,-336.5 264,-342.5 264,-348.5 264,-348.5 264,-447.5 264,-447.5 264,-453.5 258,-459.5 252,-459.5 252,-459.5 140,-459.5 140,-459.5 134,-459.5 128,-453.5 128,-447.5 128,-447.5 128,-348.5 128,-348.5 128,-342.5 134,-336.5 140,-336.5"/>
<text text-anchor="middle" x="196" y="-444.3" font-family="Times,serif" font-size="14.00">ApplicationController</text>
<polyline fill="none" stroke="black" points="128,-436.5 264,-436.5 "/>
<polyline fill="none" stroke="black" points="128,-412.5 264,-412.5 "/>
<text text-anchor="start" x="136" y="-397.3" font-family="Times,serif" font-size="14.00">current_user</text>
<text text-anchor="start" x="136" y="-382.3" font-family="Times,serif" font-size="14.00">ensure_login</text>
<text text-anchor="start" x="136" y="-367.3" font-family="Times,serif" font-size="14.00">logged_in?</text>
<polyline fill="none" stroke="black" points="128,-359.5 264,-359.5 "/>
<text text-anchor="start" x="136" y="-344.3" font-family="Times,serif" font-size="14.00">_layout</text>
</g>
<!-- EncyclopediaController -->
<g id="node3" class="node"><title>EncyclopediaController</title>
<path fill="none" stroke="black" d="M316,-0.5C316,-0.5 438,-0.5 438,-0.5 444,-0.5 450,-6.5 450,-12.5 450,-12.5 450,-81.5 450,-81.5 450,-87.5 444,-93.5 438,-93.5 438,-93.5 316,-93.5 316,-93.5 310,-93.5 304,-87.5 304,-81.5 304,-81.5 304,-12.5 304,-12.5 304,-6.5 310,-0.5 316,-0.5"/>
<text text-anchor="middle" x="377" y="-78.3" font-family="Times,serif" font-size="14.00">EncyclopediaController</text>
<polyline fill="none" stroke="black" points="304,-70.5 450,-70.5 "/>
<text text-anchor="start" x="312" y="-55.3" font-family="Times,serif" font-size="14.00">index</text>
<polyline fill="none" stroke="black" points="304,-47.5 450,-47.5 "/>
<polyline fill="none" stroke="black" points="304,-23.5 450,-23.5 "/>
<text text-anchor="start" x="312" y="-8.3" font-family="Times,serif" font-size="14.00">_layout</text>
</g>
<!-- FeedbacksController -->
<g id="node4" class="node"><title>FeedbacksController</title>
<path fill="none" stroke="black" d="M316,-240.5C316,-240.5 421,-240.5 421,-240.5 427,-240.5 433,-246.5 433,-252.5 433,-252.5 433,-381.5 433,-381.5 433,-387.5 427,-393.5 421,-393.5 421,-393.5 316,-393.5 316,-393.5 310,-393.5 304,-387.5 304,-381.5 304,-381.5 304,-252.5 304,-252.5 304,-246.5 310,-240.5 316,-240.5"/>
<text text-anchor="middle" x="368.5" y="-378.3" font-family="Times,serif" font-size="14.00">FeedbacksController</text>
<polyline fill="none" stroke="black" points="304,-370.5 433,-370.5 "/>
<text text-anchor="start" x="312" y="-355.3" font-family="Times,serif" font-size="14.00">create</text>
<text text-anchor="start" x="312" y="-340.3" font-family="Times,serif" font-size="14.00">destroy</text>
<text text-anchor="start" x="312" y="-325.3" font-family="Times,serif" font-size="14.00">index</text>
<polyline fill="none" stroke="black" points="304,-317.5 433,-317.5 "/>
<polyline fill="none" stroke="black" points="304,-293.5 433,-293.5 "/>
<text text-anchor="start" x="312" y="-278.3" font-family="Times,serif" font-size="14.00">_layout</text>
<text text-anchor="start" x="312" y="-263.3" font-family="Times,serif" font-size="14.00">feedback_params</text>
<text text-anchor="start" x="312" y="-248.3" font-family="Times,serif" font-size="14.00">set_feedback</text>
</g>
<!-- HomeController -->
<g id="node5" class="node"><title>HomeController</title>
<path fill="none" stroke="black" d="M460,-432.5C460,-432.5 542,-432.5 542,-432.5 548,-432.5 554,-438.5 554,-444.5 554,-444.5 554,-543.5 554,-543.5 554,-549.5 548,-555.5 542,-555.5 542,-555.5 460,-555.5 460,-555.5 454,-555.5 448,-549.5 448,-543.5 448,-543.5 448,-444.5 448,-444.5 448,-438.5 454,-432.5 460,-432.5"/>
<text text-anchor="middle" x="501" y="-540.3" font-family="Times,serif" font-size="14.00">HomeController</text>
<polyline fill="none" stroke="black" points="448,-532.5 554,-532.5 "/>
<text text-anchor="start" x="456" y="-517.3" font-family="Times,serif" font-size="14.00">about_us</text>
<text text-anchor="start" x="456" y="-502.3" font-family="Times,serif" font-size="14.00">index</text>
<text text-anchor="start" x="456" y="-487.3" font-family="Times,serif" font-size="14.00">partners</text>
<polyline fill="none" stroke="black" points="448,-479.5 554,-479.5 "/>
<polyline fill="none" stroke="black" points="448,-455.5 554,-455.5 "/>
<text text-anchor="start" x="456" y="-440.3" font-family="Times,serif" font-size="14.00">_layout</text>
</g>
<!-- ProfessionsController -->
<g id="node6" class="node"><title>ProfessionsController</title>
<path fill="none" stroke="black" d="M156,-96.5C156,-96.5 266,-96.5 266,-96.5 272,-96.5 278,-102.5 278,-108.5 278,-108.5 278,-297.5 278,-297.5 278,-303.5 272,-309.5 266,-309.5 266,-309.5 156,-309.5 156,-309.5 150,-309.5 144,-303.5 144,-297.5 144,-297.5 144,-108.5 144,-108.5 144,-102.5 150,-96.5 156,-96.5"/>
<text text-anchor="middle" x="211" y="-294.3" font-family="Times,serif" font-size="14.00">ProfessionsController</text>
<polyline fill="none" stroke="black" points="144,-286.5 278,-286.5 "/>
<text text-anchor="start" x="152" y="-271.3" font-family="Times,serif" font-size="14.00">create</text>
<text text-anchor="start" x="152" y="-256.3" font-family="Times,serif" font-size="14.00">destroy</text>
<text text-anchor="start" x="152" y="-241.3" font-family="Times,serif" font-size="14.00">edit</text>
<text text-anchor="start" x="152" y="-226.3" font-family="Times,serif" font-size="14.00">index</text>
<text text-anchor="start" x="152" y="-211.3" font-family="Times,serif" font-size="14.00">new</text>
<text text-anchor="start" x="152" y="-196.3" font-family="Times,serif" font-size="14.00">show</text>
<text text-anchor="start" x="152" y="-181.3" font-family="Times,serif" font-size="14.00">update</text>
<polyline fill="none" stroke="black" points="144,-173.5 278,-173.5 "/>
<polyline fill="none" stroke="black" points="144,-149.5 278,-149.5 "/>
<text text-anchor="start" x="152" y="-134.3" font-family="Times,serif" font-size="14.00">_layout</text>
<text text-anchor="start" x="152" y="-119.3" font-family="Times,serif" font-size="14.00">profession_params</text>
<text text-anchor="start" x="152" y="-104.3" font-family="Times,serif" font-size="14.00">set_profession</text>
</g>
<!-- SessionsController -->
<g id="node7" class="node"><title>SessionsController</title>
<path fill="none" stroke="black" d="M12,-176.5C12,-176.5 107,-176.5 107,-176.5 113,-176.5 119,-182.5 119,-188.5 119,-188.5 119,-287.5 119,-287.5 119,-293.5 113,-299.5 107,-299.5 107,-299.5 12,-299.5 12,-299.5 6,-299.5 -2.84217e-14,-293.5 -2.84217e-14,-287.5 -2.84217e-14,-287.5 -2.84217e-14,-188.5 -2.84217e-14,-188.5 -2.84217e-14,-182.5 6,-176.5 12,-176.5"/>
<text text-anchor="middle" x="59.5" y="-284.3" font-family="Times,serif" font-size="14.00">SessionsController</text>
<polyline fill="none" stroke="black" points="-2.84217e-14,-276.5 119,-276.5 "/>
<text text-anchor="start" x="8" y="-261.3" font-family="Times,serif" font-size="14.00">create</text>
<text text-anchor="start" x="8" y="-246.3" font-family="Times,serif" font-size="14.00">destroy</text>
<text text-anchor="start" x="8" y="-231.3" font-family="Times,serif" font-size="14.00">new</text>
<polyline fill="none" stroke="black" points="-2.84217e-14,-223.5 119,-223.5 "/>
<polyline fill="none" stroke="black" points="-2.84217e-14,-199.5 119,-199.5 "/>
<text text-anchor="start" x="8" y="-184.3" font-family="Times,serif" font-size="14.00">_layout</text>
</g>
<!-- UsersController -->
<g id="node8" class="node"><title>UsersController</title>
<path fill="none" stroke="black" d="M28,-0.5C28,-0.5 107,-0.5 107,-0.5 113,-0.5 119,-6.5 119,-12.5 119,-12.5 119,-126.5 119,-126.5 119,-132.5 113,-138.5 107,-138.5 107,-138.5 28,-138.5 28,-138.5 22,-138.5 16,-132.5 16,-126.5 16,-126.5 16,-12.5 16,-12.5 16,-6.5 22,-0.5 28,-0.5"/>
<text text-anchor="middle" x="67.5" y="-123.3" font-family="Times,serif" font-size="14.00">UsersController</text>
<polyline fill="none" stroke="black" points="16,-115.5 119,-115.5 "/>
<text text-anchor="start" x="24" y="-100.3" font-family="Times,serif" font-size="14.00">create</text>
<text text-anchor="start" x="24" y="-85.3" font-family="Times,serif" font-size="14.00">index</text>
<polyline fill="none" stroke="black" points="16,-77.5 119,-77.5 "/>
<polyline fill="none" stroke="black" points="16,-53.5 119,-53.5 "/>
<text text-anchor="start" x="24" y="-38.3" font-family="Times,serif" font-size="14.00">_layout</text>
<text text-anchor="start" x="24" y="-23.3" font-family="Times,serif" font-size="14.00">set_user</text>
<text text-anchor="start" x="24" y="-8.3" font-family="Times,serif" font-size="14.00">user_params</text>
</g>
</g>
</svg>
