<?xml version="1.0" encoding="UTF-8" standalone="no"?>
<!DOCTYPE svg PUBLIC "-//W3C//DTD SVG 1.1//EN"
 "http://www.w3.org/Graphics/SVG/1.1/DTD/svg11.dtd">
<!-- Generated by graphviz version 2.36.0 (20140111.2315)
 -->
<!-- Title: models_diagram Pages: 1 -->
<svg width="764pt" height="302pt"
 viewBox="0.00 0.00 764.00 302.00" xmlns="http://www.w3.org/2000/svg" xmlns:xlink="http://www.w3.org/1999/xlink">
<g id="graph0" class="graph" transform="scale(1 1) rotate(0) translate(4 298)">
<title>models_diagram</title>
<polygon fill="none" stroke="none" points="-4,4 -4,-298 760,-298 760,4 -4,4"/>
<!-- _diagram_info -->
<g id="node1" class="node"><title>_diagram_info</title>
<text text-anchor="start" x="71" y="-279.6" font-family="Times,serif" font-size="13.00">Models diagram</text>
<text text-anchor="start" x="71" y="-265.6" font-family="Times,serif" font-size="13.00">Date: Dec 10 2015 &#45; 18:23</text>
<text text-anchor="start" x="71" y="-251.6" font-family="Times,serif" font-size="13.00">Migration version: 20151105212848</text>
<text text-anchor="start" x="71" y="-237.6" font-family="Times,serif" font-size="13.00">Generated by RailRoady 1.4.2</text>
<text text-anchor="start" x="71" y="-223.6" font-family="Times,serif" font-size="13.00">http://railroady.prestonlee.com</text>
</g>
<!-- Accountability -->
<g id="node2" class="node"><title>Accountability</title>
<ellipse fill="none" stroke="black" cx="63" cy="-18" rx="63.0666" ry="18"/>
<text text-anchor="middle" x="63" y="-14.3" font-family="Times,serif" font-size="14.00">Accountability</text>
</g>
<!-- Attainment -->
<g id="node3" class="node"><title>Attainment</title>
<ellipse fill="none" stroke="black" cx="346" cy="-255" rx="50.5427" ry="18"/>
<text text-anchor="middle" x="346" y="-251.3" font-family="Times,serif" font-size="14.00">Attainment</text>
</g>
<!-- Competence -->
<g id="node5" class="node"><title>Competence</title>
<ellipse fill="none" stroke="black" cx="346" cy="-162" rx="55.3682" ry="18"/>
<text text-anchor="middle" x="346" y="-158.3" font-family="Times,serif" font-size="14.00">Competence</text>
</g>
<!-- Attainment&#45;&gt;Competence -->
<g id="edge1" class="edge"><title>Attainment&#45;&gt;Competence</title>
<path fill="none" stroke="#0b7da2" d="M346,-226.549C346,-215.083 346,-201.792 346,-190.339"/>
<polygon fill="#0b7da2" stroke="#0b7da2" points="346,-226.884 341.5,-236.884 346,-231.884 346,-236.884 346,-236.884 346,-236.884 346,-231.884 350.5,-236.884 346,-226.884 346,-226.884"/>
<polygon fill="#0b7da2" stroke="#0b7da2" points="346,-190.04 350.5,-180.04 346,-185.04 346,-180.04 346,-180.04 346,-180.04 346,-185.04 341.5,-180.04 346,-190.04 346,-190.04"/>
</g>
<!-- Choice -->
<g id="node4" class="node"><title>Choice</title>
<ellipse fill="none" stroke="black" cx="510" cy="-90" rx="35.6194" ry="18"/>
<text text-anchor="middle" x="510" y="-86.3" font-family="Times,serif" font-size="14.00">Choice</text>
</g>
<!-- Knowledge -->
<g id="node8" class="node"><title>Knowledge</title>
<ellipse fill="none" stroke="black" cx="181" cy="-90" rx="51.0191" ry="18"/>
<text text-anchor="middle" x="181" y="-86.3" font-family="Times,serif" font-size="14.00">Knowledge</text>
</g>
<!-- Competence&#45;&gt;Knowledge -->
<g id="edge5" class="edge"><title>Competence&#45;&gt;Knowledge</title>
<path fill="none" stroke="#99eea0" d="M304.455,-143.375C279.074,-132.607 246.764,-118.9 221.565,-108.209"/>
<polygon fill="#99eea0" stroke="#99eea0" points="304.589,-143.432 312.037,-151.48 309.192,-145.384 313.795,-147.337 313.795,-147.337 313.795,-147.337 309.192,-145.384 315.552,-143.195 304.589,-143.432 304.589,-143.432"/>
<polygon fill="#99eea0" stroke="#99eea0" points="221.49,-108.178 214.042,-100.13 216.888,-106.225 212.285,-104.272 212.285,-104.272 212.285,-104.272 216.888,-106.225 210.527,-108.415 221.49,-108.178 221.49,-108.178"/>
</g>
<!-- Profession -->
<g id="node9" class="node"><title>Profession</title>
<ellipse fill="none" stroke="black" cx="298" cy="-90" rx="48.1437" ry="18"/>
<text text-anchor="middle" x="298" y="-86.3" font-family="Times,serif" font-size="14.00">Profession</text>
</g>
<!-- Competence&#45;&gt;Profession -->
<g id="edge3" class="edge"><title>Competence&#45;&gt;Profession</title>
<path fill="none" stroke="#39a307" d="M328.566,-135.575C324.204,-129.215 319.53,-122.398 315.181,-116.055"/>
<polygon fill="#39a307" stroke="#39a307" points="328.725,-135.808 330.669,-146.6 331.553,-139.931 334.381,-144.055 334.381,-144.055 334.381,-144.055 331.553,-139.931 338.092,-141.51 328.725,-135.808 328.725,-135.808"/>
<polygon fill="#39a307" stroke="#39a307" points="315.168,-116.036 313.224,-105.244 312.34,-111.913 309.512,-107.789 309.512,-107.789 309.512,-107.789 312.34,-111.913 305.801,-110.334 315.168,-116.036 315.168,-116.036"/>
</g>
<!-- Skill -->
<g id="node13" class="node"><title>Skill</title>
<ellipse fill="none" stroke="black" cx="391" cy="-90" rx="26.949" ry="18"/>
<text text-anchor="middle" x="391" y="-86.3" font-family="Times,serif" font-size="14.00">Skill</text>
</g>
<!-- Competence&#45;&gt;Skill -->
<g id="edge4" class="edge"><title>Competence&#45;&gt;Skill</title>
<path fill="none" stroke="#fbb19f" d="M362.323,-135.609C366.574,-128.996 371.144,-121.886 375.36,-115.33"/>
<polygon fill="#fbb19f" stroke="#fbb19f" points="362.301,-135.643 353.108,-141.622 359.597,-139.849 356.893,-144.055 356.893,-144.055 356.893,-144.055 359.597,-139.849 360.679,-146.488 362.301,-135.643 362.301,-135.643"/>
<polygon fill="#fbb19f" stroke="#fbb19f" points="375.416,-115.241 384.609,-109.263 378.12,-111.035 380.824,-106.829 380.824,-106.829 380.824,-106.829 378.12,-111.035 377.039,-104.396 375.416,-115.241 375.416,-115.241"/>
</g>
<!-- Task -->
<g id="node14" class="node"><title>Task</title>
<ellipse fill="none" stroke="black" cx="446" cy="-18" rx="27.4223" ry="18"/>
<text text-anchor="middle" x="446" y="-14.3" font-family="Times,serif" font-size="14.00">Task</text>
</g>
<!-- Competence&#45;&gt;Task -->
<g id="edge2" class="edge"><title>Competence&#45;&gt;Task</title>
<path fill="none" stroke="#8ed3b4" d="M385.869,-143.212C400.891,-134.617 416.794,-122.891 427,-108 439.453,-89.8312 443.977,-65.0562 445.516,-46.2588"/>
<ellipse fill="none" stroke="#8ed3b4" cx="382.106" cy="-145.265" rx="4.00002" ry="4.00002"/>
<polygon fill="#8ed3b4" stroke="#8ed3b4" points="445.517,-46.2271 450.596,-36.5083 445.811,-41.2357 446.104,-36.2443 446.104,-36.2443 446.104,-36.2443 445.811,-41.2357 441.612,-35.9802 445.517,-46.2271 445.517,-46.2271"/>
</g>
<!-- Discipline -->
<g id="node6" class="node"><title>Discipline</title>
<ellipse fill="none" stroke="black" cx="181" cy="-162" rx="46.1964" ry="18"/>
<text text-anchor="middle" x="181" y="-158.3" font-family="Times,serif" font-size="14.00">Discipline</text>
</g>
<!-- Discipline&#45;&gt;Knowledge -->
<g id="edge6" class="edge"><title>Discipline&#45;&gt;Knowledge</title>
<path fill="none" stroke="#0ffd28" d="M181,-135.64C181,-130.063 181,-124.132 181,-118.476"/>
<ellipse fill="none" stroke="#0ffd28" cx="181" cy="-139.697" rx="4" ry="4"/>
<polygon fill="#0ffd28" stroke="#0ffd28" points="181,-118.104 185.5,-108.104 181,-113.104 181,-108.104 181,-108.104 181,-108.104 181,-113.104 176.5,-108.104 181,-118.104 181,-118.104"/>
</g>
<!-- Feedback -->
<g id="node7" class="node"><title>Feedback</title>
<ellipse fill="none" stroke="black" cx="712" cy="-255" rx="44.2946" ry="18"/>
<text text-anchor="middle" x="712" y="-251.3" font-family="Times,serif" font-size="14.00">Feedback</text>
</g>
<!-- Profession&#45;&gt;Accountability -->
<g id="edge8" class="edge"><title>Profession&#45;&gt;Accountability</title>
<path fill="none" stroke="#765124" d="M253.774,-75.8077C249.458,-74.5208 245.144,-73.235 241,-72 197.764,-59.1158 148.618,-44.4832 112.936,-33.8622"/>
<ellipse fill="none" stroke="#765124" cx="257.678" cy="-76.9718" rx="4.00001" ry="4.00001"/>
<ellipse fill="#765124" stroke="#765124" cx="108.914" cy="-32.6649" rx="4.00001" ry="4.00001"/>
</g>
<!-- Qualification -->
<g id="node10" class="node"><title>Qualification</title>
<ellipse fill="none" stroke="black" cx="201" cy="-18" rx="57.2927" ry="18"/>
<text text-anchor="middle" x="201" y="-14.3" font-family="Times,serif" font-size="14.00">Qualification</text>
</g>
<!-- Profession&#45;&gt;Qualification -->
<g id="edge7" class="edge"><title>Profession&#45;&gt;Qualification</title>
<path fill="none" stroke="#25de8b" d="M270.318,-69.0234C257.544,-59.805 242.392,-48.8706 229.517,-39.5793"/>
<ellipse fill="none" stroke="#25de8b" cx="273.709" cy="-71.4703" rx="4.00002" ry="4.00002"/>
<ellipse fill="#25de8b" stroke="#25de8b" cx="226.26" cy="-37.2289" rx="4.00002" ry="4.00002"/>
</g>
<!-- Responsibility -->
<g id="node12" class="node"><title>Responsibility</title>
<ellipse fill="none" stroke="black" cx="338" cy="-18" rx="61.6163" ry="18"/>
<text text-anchor="middle" x="338" y="-14.3" font-family="Times,serif" font-size="14.00">Responsibility</text>
</g>
<!-- Profession&#45;&gt;Responsibility -->
<g id="edge9" class="edge"><title>Profession&#45;&gt;Responsibility</title>
<path fill="none" stroke="#204562" d="M311.716,-64.9976C315.751,-57.9363 320.166,-50.2103 324.205,-43.1405"/>
<ellipse fill="none" stroke="#204562" cx="309.667" cy="-68.582" rx="4.00002" ry="4.00002"/>
<ellipse fill="#204562" stroke="#204562" cx="326.422" cy="-39.262" rx="4.00002" ry="4.00002"/>
</g>
<!-- Profession&#45;&gt;Task -->
<g id="edge10" class="edge"><title>Profession&#45;&gt;Task</title>
<path fill="none" stroke="#e2d5a2" d="M333.844,-72.0467C358.664,-60.3076 391.367,-44.84 415.05,-33.6385"/>
<ellipse fill="none" stroke="#e2d5a2" cx="330.152" cy="-73.793" rx="4.00002" ry="4.00002"/>
<polygon fill="#e2d5a2" stroke="#e2d5a2" points="415.241,-33.548 426.205,-33.3403 419.761,-31.4102 424.281,-29.2723 424.281,-29.2723 424.281,-29.2723 419.761,-31.4102 422.357,-25.2044 415.241,-33.548 415.241,-33.548"/>
</g>
<!-- Question -->
<g id="node11" class="node"><title>Question</title>
<ellipse fill="none" stroke="black" cx="510" cy="-162" rx="42.3701" ry="18"/>
<text text-anchor="middle" x="510" y="-158.3" font-family="Times,serif" font-size="14.00">Question</text>
</g>
<!-- Question&#45;&gt;Choice -->
<g id="edge11" class="edge"><title>Question&#45;&gt;Choice</title>
<path fill="none" stroke="#51c7b8" d="M510,-135.64C510,-130.063 510,-124.132 510,-118.476"/>
<ellipse fill="none" stroke="#51c7b8" cx="510" cy="-139.697" rx="4" ry="4"/>
<polygon fill="#51c7b8" stroke="#51c7b8" points="510,-118.104 514.5,-108.104 510,-113.104 510,-108.104 510,-108.104 510,-108.104 510,-113.104 505.5,-108.104 510,-118.104 510,-118.104"/>
</g>
<!-- Test -->
<g id="node15" class="node"><title>Test</title>
<ellipse fill="none" stroke="black" cx="530" cy="-255" rx="27" ry="18"/>
<text text-anchor="middle" x="530" y="-251.3" font-family="Times,serif" font-size="14.00">Test</text>
</g>
<!-- Test&#45;&gt;Question -->
<g id="edge13" class="edge"><title>Test&#45;&gt;Question</title>
<path fill="none" stroke="#91985a" d="M524.446,-228.729C521.808,-216.725 518.651,-202.362 515.962,-190.129"/>
<ellipse fill="none" stroke="#91985a" cx="525.379" cy="-232.977" rx="4.00001" ry="4.00001"/>
<polygon fill="#91985a" stroke="#91985a" points="515.892,-189.807 518.14,-179.074 514.818,-184.923 513.745,-180.04 513.745,-180.04 513.745,-180.04 514.818,-184.923 509.35,-181.006 515.892,-189.807 515.892,-189.807"/>
</g>
<!-- TestSession -->
<g id="node16" class="node"><title>TestSession</title>
<ellipse fill="none" stroke="black" cx="623" cy="-162" rx="52.4675" ry="18"/>
<text text-anchor="middle" x="623" y="-158.3" font-family="Times,serif" font-size="14.00">TestSession</text>
</g>
<!-- Test&#45;&gt;TestSession -->
<g id="edge12" class="edge"><title>Test&#45;&gt;TestSession</title>
<path fill="none" stroke="#326409" d="M550.388,-234.051C564.69,-220.056 583.869,-201.29 598.924,-186.558"/>
<ellipse fill="none" stroke="#326409" cx="547.39" cy="-236.984" rx="4.00002" ry="4.00002"/>
<polygon fill="#326409" stroke="#326409" points="599.226,-186.263 609.521,-182.485 602.8,-182.766 606.373,-179.269 606.373,-179.269 606.373,-179.269 602.8,-182.766 603.226,-176.053 599.226,-186.263 599.226,-186.263"/>
</g>
<!-- UserAnswer -->
<g id="node18" class="node"><title>UserAnswer</title>
<ellipse fill="none" stroke="black" cx="623" cy="-90" rx="54.3924" ry="18"/>
<text text-anchor="middle" x="623" y="-86.3" font-family="Times,serif" font-size="14.00">UserAnswer</text>
</g>
<!-- TestSession&#45;&gt;UserAnswer -->
<g id="edge14" class="edge"><title>TestSession&#45;&gt;UserAnswer</title>
<path fill="none" stroke="#8d6b6c" d="M623,-135.64C623,-130.063 623,-124.132 623,-118.476"/>
<ellipse fill="none" stroke="#8d6b6c" cx="623" cy="-139.697" rx="4" ry="4"/>
<polygon fill="#8d6b6c" stroke="#8d6b6c" points="623,-118.104 627.5,-108.104 623,-113.104 623,-108.104 623,-108.104 623,-108.104 623,-113.104 618.5,-108.104 623,-118.104 623,-118.104"/>
</g>
<!-- User -->
<g id="node17" class="node"><title>User</title>
<ellipse fill="none" stroke="black" cx="623" cy="-255" rx="26.949" ry="18"/>
<text text-anchor="middle" x="623" y="-251.3" font-family="Times,serif" font-size="14.00">User</text>
</g>
<!-- User&#45;&gt;TestSession -->
<g id="edge15" class="edge"><title>User&#45;&gt;TestSession</title>
<path fill="none" stroke="#070d57" d="M623,-228.729C623,-216.725 623,-202.362 623,-190.129"/>
<ellipse fill="none" stroke="#070d57" cx="623" cy="-232.884" rx="4" ry="4"/>
<polygon fill="#070d57" stroke="#070d57" points="623,-190.04 627.5,-180.04 623,-185.04 623,-180.04 623,-180.04 623,-180.04 623,-185.04 618.5,-180.04 623,-190.04 623,-190.04"/>
</g>
</g>
</svg>
