<?xml version="1.0" encoding="UTF-8" standalone="no"?>
<!DOCTYPE svg PUBLIC "-//W3C//DTD SVG 1.1//EN"
 "http://www.w3.org/Graphics/SVG/1.1/DTD/svg11.dtd">
<!-- Generated by graphviz version 2.36.0 (20140111.2315)
 -->
<!-- Title: models_diagram Pages: 1 -->
<svg width="709pt" height="322pt"
 viewBox="0.00 0.00 709.00 322.00" xmlns="http://www.w3.org/2000/svg" xmlns:xlink="http://www.w3.org/1999/xlink">
<g id="graph0" class="graph" transform="scale(1 1) rotate(0) translate(4 318)">
<title>models_diagram</title>
<polygon fill="none" stroke="none" points="-4,4 -4,-318 705,-318 705,4 -4,4"/>
<!-- _diagram_info -->
<g id="node1" class="node"><title>_diagram_info</title>
<text text-anchor="start" x="71" y="-299.6" font-family="Times,serif" font-size="13.00">Models diagram</text>
<text text-anchor="start" x="71" y="-285.6" font-family="Times,serif" font-size="13.00">Date: Dec 14 2015 &#45; 12:45</text>
<text text-anchor="start" x="71" y="-271.6" font-family="Times,serif" font-size="13.00">Migration version: 20151211083555</text>
<text text-anchor="start" x="71" y="-257.6" font-family="Times,serif" font-size="13.00">Generated by RailRoady 1.4.2</text>
<text text-anchor="start" x="71" y="-243.6" font-family="Times,serif" font-size="13.00">http://railroady.prestonlee.com</text>
</g>
<!-- Accountability -->
<g id="node2" class="node"><title>Accountability</title>
<ellipse fill="none" stroke="black" cx="63" cy="-18" rx="63.0666" ry="18"/>
<text text-anchor="middle" x="63" y="-14.3" font-family="Times,serif" font-size="14.00">Accountability</text>
</g>
<!-- Attainment -->
<g id="node3" class="node"><title>Attainment</title>
<ellipse fill="none" stroke="black" cx="346" cy="-275" rx="50.5427" ry="18"/>
<text text-anchor="middle" x="346" y="-271.3" font-family="Times,serif" font-size="14.00">Attainment</text>
</g>
<!-- Competence -->
<g id="node4" class="node"><title>Competence</title>
<ellipse fill="none" stroke="black" cx="346" cy="-166" rx="55.3682" ry="18"/>
<text text-anchor="middle" x="346" y="-162.3" font-family="Times,serif" font-size="14.00">Competence</text>
</g>
<!-- Attainment&#45;&gt;Competence -->
<g id="edge1" class="edge"><title>Attainment&#45;&gt;Competence</title>
<path fill="none" stroke="#3d3bd3" d="M346,-246.611C346,-230.613 346,-210.489 346,-194.476"/>
<polygon fill="#3d3bd3" stroke="#3d3bd3" points="346,-246.809 341.5,-256.809 346,-251.809 346,-256.809 346,-256.809 346,-256.809 346,-251.809 350.5,-256.809 346,-246.809 346,-246.809"/>
<polygon fill="#3d3bd3" stroke="#3d3bd3" points="346,-194.149 350.5,-184.149 346,-189.149 346,-184.149 346,-184.149 346,-184.149 346,-189.149 341.5,-184.149 346,-194.149 346,-194.149"/>
</g>
<!-- Knowledge -->
<g id="node7" class="node"><title>Knowledge</title>
<ellipse fill="none" stroke="black" cx="181" cy="-92" rx="51.0191" ry="18"/>
<text text-anchor="middle" x="181" y="-88.3" font-family="Times,serif" font-size="14.00">Knowledge</text>
</g>
<!-- Competence&#45;&gt;Knowledge -->
<g id="edge5" class="edge"><title>Competence&#45;&gt;Knowledge</title>
<path fill="none" stroke="#aa4b34" d="M304.792,-147.018C279.241,-135.869 246.572,-121.613 221.21,-110.546"/>
<polygon fill="#aa4b34" stroke="#aa4b34" points="305.021,-147.118 312.387,-155.242 309.604,-149.118 314.186,-151.118 314.186,-151.118 314.186,-151.118 309.604,-149.118 315.986,-146.993 305.021,-147.118 305.021,-147.118"/>
<polygon fill="#aa4b34" stroke="#aa4b34" points="221.043,-110.474 213.678,-102.35 216.461,-108.474 211.878,-106.474 211.878,-106.474 211.878,-106.474 216.461,-108.474 210.078,-110.598 221.043,-110.474 221.043,-110.474"/>
</g>
<!-- Profession -->
<g id="node8" class="node"><title>Profession</title>
<ellipse fill="none" stroke="black" cx="298" cy="-92" rx="48.1437" ry="18"/>
<text text-anchor="middle" x="298" y="-88.3" font-family="Times,serif" font-size="14.00">Profession</text>
</g>
<!-- Competence&#45;&gt;Profession -->
<g id="edge3" class="edge"><title>Competence&#45;&gt;Profession</title>
<path fill="none" stroke="#8fab1b" d="M329.264,-139.896C324.562,-132.844 319.45,-125.175 314.748,-118.122"/>
<polygon fill="#8fab1b" stroke="#8fab1b" points="329.32,-139.98 331.123,-150.797 332.094,-144.141 334.867,-148.301 334.867,-148.301 334.867,-148.301 332.094,-144.141 338.611,-145.805 329.32,-139.98 329.32,-139.98"/>
<polygon fill="#8fab1b" stroke="#8fab1b" points="314.619,-117.929 312.817,-107.112 311.846,-113.769 309.072,-109.609 309.072,-109.609 309.072,-109.609 311.846,-113.769 305.328,-112.105 314.619,-117.929 314.619,-117.929"/>
</g>
<!-- Skill -->
<g id="node11" class="node"><title>Skill</title>
<ellipse fill="none" stroke="black" cx="391" cy="-92" rx="26.949" ry="18"/>
<text text-anchor="middle" x="391" y="-88.3" font-family="Times,serif" font-size="14.00">Skill</text>
</g>
<!-- Competence&#45;&gt;Skill -->
<g id="edge4" class="edge"><title>Competence&#45;&gt;Skill</title>
<path fill="none" stroke="#51f9db" d="M361.769,-139.77C366.244,-132.609 371.111,-124.823 375.566,-117.694"/>
<polygon fill="#51f9db" stroke="#51f9db" points="361.737,-139.821 352.621,-145.916 359.087,-144.061 356.437,-148.301 356.437,-148.301 356.437,-148.301 359.087,-144.061 360.253,-150.686 361.737,-139.821 361.737,-139.821"/>
<polygon fill="#51f9db" stroke="#51f9db" points="375.629,-117.593 384.745,-111.498 378.279,-113.353 380.929,-109.113 380.929,-109.113 380.929,-109.113 378.279,-113.353 377.113,-106.728 375.629,-117.593 375.629,-117.593"/>
</g>
<!-- Task -->
<g id="node12" class="node"><title>Task</title>
<ellipse fill="none" stroke="black" cx="446" cy="-18" rx="27.4223" ry="18"/>
<text text-anchor="middle" x="446" y="-14.3" font-family="Times,serif" font-size="14.00">Task</text>
</g>
<!-- Competence&#45;&gt;Task -->
<g id="edge2" class="edge"><title>Competence&#45;&gt;Task</title>
<path fill="none" stroke="#29b996" d="M384.417,-147.142C399.879,-138.1 416.502,-125.677 427,-110 439.595,-91.1916 444.092,-65.6779 445.584,-46.4515"/>
<ellipse fill="none" stroke="#29b996" cx="380.911" cy="-149.105" rx="4.00002" ry="4.00002"/>
<polygon fill="#29b996" stroke="#29b996" points="445.597,-46.2132 450.638,-36.4749 445.871,-41.2207 446.145,-36.2282 446.145,-36.2282 446.145,-36.2282 445.871,-41.2207 441.652,-35.9816 445.597,-46.2132 445.597,-46.2132"/>
</g>
<!-- Discipline -->
<g id="node5" class="node"><title>Discipline</title>
<ellipse fill="none" stroke="black" cx="181" cy="-166" rx="46.1964" ry="18"/>
<text text-anchor="middle" x="181" y="-162.3" font-family="Times,serif" font-size="14.00">Discipline</text>
</g>
<!-- Discipline&#45;&gt;Knowledge -->
<g id="edge6" class="edge"><title>Discipline&#45;&gt;Knowledge</title>
<path fill="none" stroke="#4aeadd" d="M181,-139.792C181,-133.58 181,-126.896 181,-120.579"/>
<ellipse fill="none" stroke="#4aeadd" cx="181" cy="-143.937" rx="4" ry="4"/>
<polygon fill="#4aeadd" stroke="#4aeadd" points="181,-120.441 185.5,-110.441 181,-115.441 181,-110.441 181,-110.441 181,-110.441 181,-115.441 176.5,-110.441 181,-120.441 181,-120.441"/>
</g>
<!-- Feedback -->
<g id="node6" class="node"><title>Feedback</title>
<ellipse fill="none" stroke="black" cx="475" cy="-275" rx="44.2946" ry="18"/>
<text text-anchor="middle" x="475" y="-271.3" font-family="Times,serif" font-size="14.00">Feedback</text>
</g>
<!-- Profession&#45;&gt;Accountability -->
<g id="edge8" class="edge"><title>Profession&#45;&gt;Accountability</title>
<path fill="none" stroke="#877447" d="M254.317,-77.6162C214.053,-65.2801 154.354,-46.9892 112.376,-34.1279"/>
<ellipse fill="none" stroke="#877447" cx="258.228" cy="-78.8146" rx="4.00001" ry="4.00001"/>
<ellipse fill="#877447" stroke="#877447" cx="108.315" cy="-32.8837" rx="4.00001" ry="4.00001"/>
</g>
<!-- Qualification -->
<g id="node9" class="node"><title>Qualification</title>
<ellipse fill="none" stroke="black" cx="201" cy="-18" rx="57.2927" ry="18"/>
<text text-anchor="middle" x="201" y="-14.3" font-family="Times,serif" font-size="14.00">Qualification</text>
</g>
<!-- Profession&#45;&gt;Qualification -->
<g id="edge7" class="edge"><title>Profession&#45;&gt;Qualification</title>
<path fill="none" stroke="#8b9d40" d="M270.653,-70.7009C257.581,-60.9982 241.96,-49.403 228.826,-39.6547"/>
<ellipse fill="none" stroke="#8b9d40" cx="274.217" cy="-73.3466" rx="4.00002" ry="4.00002"/>
<ellipse fill="#8b9d40" stroke="#8b9d40" cx="225.424" cy="-37.1292" rx="4.00002" ry="4.00002"/>
</g>
<!-- Responsibility -->
<g id="node10" class="node"><title>Responsibility</title>
<ellipse fill="none" stroke="black" cx="338" cy="-18" rx="61.6163" ry="18"/>
<text text-anchor="middle" x="338" y="-14.3" font-family="Times,serif" font-size="14.00">Responsibility</text>
</g>
<!-- Profession&#45;&gt;Responsibility -->
<g id="edge9" class="edge"><title>Profession&#45;&gt;Responsibility</title>
<path fill="none" stroke="#fae390" d="M311.215,-67.2129C315.451,-59.5877 320.148,-51.1332 324.411,-43.4608"/>
<ellipse fill="none" stroke="#fae390" cx="309.22" cy="-70.8041" rx="4.00002" ry="4.00002"/>
<ellipse fill="#fae390" stroke="#fae390" cx="326.553" cy="-39.6053" rx="4.00002" ry="4.00002"/>
</g>
<!-- Profession&#45;&gt;Task -->
<g id="edge10" class="edge"><title>Profession&#45;&gt;Task</title>
<path fill="none" stroke="#06ad6e" d="M333.532,-73.7141C358.499,-61.5682 391.557,-45.4857 415.364,-33.9042"/>
<ellipse fill="none" stroke="#06ad6e" cx="329.783" cy="-75.538" rx="4.00002" ry="4.00002"/>
<polygon fill="#06ad6e" stroke="#06ad6e" points="415.639,-33.7702 426.6,-33.4421 420.135,-31.5829 424.631,-29.3955 424.631,-29.3955 424.631,-29.3955 420.135,-31.5829 422.663,-25.349 415.639,-33.7702 415.639,-33.7702"/>
</g>
<!-- User -->
<g id="node13" class="node"><title>User</title>
<ellipse fill="none" stroke="black" cx="596" cy="-275" rx="26.949" ry="18"/>
<text text-anchor="middle" x="596" y="-271.3" font-family="Times,serif" font-size="14.00">User</text>
</g>
<!-- TestSession -->
<g id="node14" class="node"><title>TestSession</title>
<ellipse fill="none" stroke="black" cx="472" cy="-166" rx="52.4675" ry="18"/>
<text text-anchor="middle" x="472" y="-162.3" font-family="Times,serif" font-size="14.00">TestSession</text>
</g>
<!-- User&#45;&gt;TestSession -->
<g id="edge11" class="edge"><title>User&#45;&gt;TestSession</title>
<path fill="none" stroke="#5fca72" d="M573.739,-254.791C552.639,-236.583 520.925,-209.217 498.524,-189.887"/>
<ellipse fill="none" stroke="#5fca72" cx="577.015" cy="-257.617" rx="4.00002" ry="4.00002"/>
<polygon fill="#5fca72" stroke="#5fca72" points="498.3,-189.694 493.669,-179.754 494.514,-186.428 490.729,-183.161 490.729,-183.161 490.729,-183.161 494.514,-186.428 487.789,-186.568 498.3,-189.694 498.3,-189.694"/>
</g>
<!-- Survey::Attempt -->
<g id="node15" class="node"><title>Survey::Attempt</title>
<ellipse fill="none" stroke="black" cx="612" cy="-166" rx="69.3156" ry="18"/>
<text text-anchor="middle" x="612" y="-162.3" font-family="Times,serif" font-size="14.00">Survey::Attempt</text>
</g>
<!-- User&#45;&gt;Survey::Attempt -->
<g id="edge12" class="edge"><title>User&#45;&gt;Survey::Attempt</title>
<path fill="none" stroke="#00522c" d="M599.772,-248.772C602.215,-232.434 605.397,-211.161 607.902,-194.408"/>
<ellipse fill="none" stroke="#00522c" cx="599.162" cy="-252.853" rx="4.00001" ry="4.00001"/>
<polygon fill="#00522c" stroke="#00522c" points="607.957,-194.039 613.886,-184.814 608.696,-189.094 609.436,-184.149 609.436,-184.149 609.436,-184.149 608.696,-189.094 604.985,-183.483 607.957,-194.039 607.957,-194.039"/>
<text text-anchor="middle" x="653.5" y="-206.3" font-family="Times,serif" font-size="14.00">survey_tentatives</text>
</g>
</g>
</svg>
