<?xml version="1.0" encoding="UTF-8" standalone="no"?>
<!DOCTYPE svg PUBLIC "-//W3C//DTD SVG 1.1//EN"
 "http://www.w3.org/Graphics/SVG/1.1/DTD/svg11.dtd">
<!-- Generated by graphviz version 2.36.0 (20140111.2315)
 -->
<!-- Title: models_diagram Pages: 1 -->
<svg width="1091pt" height="846pt"
 viewBox="0.00 0.00 1091.00 846.00" xmlns="http://www.w3.org/2000/svg" xmlns:xlink="http://www.w3.org/1999/xlink">
<g id="graph0" class="graph" transform="scale(1 1) rotate(0) translate(4 842)">
<title>models_diagram</title>
<polygon fill="none" stroke="none" points="-4,4 -4,-842 1087,-842 1087,4 -4,4"/>
<!-- _diagram_info -->
<g id="node1" class="node"><title>_diagram_info</title>
<text text-anchor="start" x="56" y="-771.6" font-family="Times,serif" font-size="13.00">Models diagram</text>
<text text-anchor="start" x="56" y="-757.6" font-family="Times,serif" font-size="13.00">Date: Dec 10 2015 &#45; 18:23</text>
<text text-anchor="start" x="56" y="-743.6" font-family="Times,serif" font-size="13.00">Migration version: 20151105212848</text>
<text text-anchor="start" x="56" y="-729.6" font-family="Times,serif" font-size="13.00">Generated by RailRoady 1.4.2</text>
<text text-anchor="start" x="56" y="-715.6" font-family="Times,serif" font-size="13.00">http://railroady.prestonlee.com</text>
</g>
<!-- Accountability -->
<g id="node2" class="node"><title>Accountability</title>
<path fill="none" stroke="black" d="M13.5,-8C13.5,-8 124.5,-8 124.5,-8 130.5,-8 136.5,-14 136.5,-20 136.5,-20 136.5,-102 136.5,-102 136.5,-108 130.5,-114 124.5,-114 124.5,-114 13.5,-114 13.5,-114 7.5,-114 1.5,-108 1.5,-102 1.5,-102 1.5,-20 1.5,-20 1.5,-14 7.5,-8 13.5,-8"/>
<text text-anchor="middle" x="69" y="-98.8" font-family="Times,serif" font-size="14.00">Accountability</text>
<polyline fill="none" stroke="black" points="1.5,-91 136.5,-91 "/>
<text text-anchor="start" x="9.5" y="-75.8" font-family="Times,serif" font-size="14.00">id :INTEGER</text>
<text text-anchor="start" x="9.5" y="-60.8" font-family="Times,serif" font-size="14.00">description :text</text>
<text text-anchor="start" x="9.5" y="-45.8" font-family="Times,serif" font-size="14.00">profession_id :integer</text>
<text text-anchor="start" x="9.5" y="-30.8" font-family="Times,serif" font-size="14.00">created_at :datetime</text>
<text text-anchor="start" x="9.5" y="-15.8" font-family="Times,serif" font-size="14.00">updated_at :datetime</text>
</g>
<!-- Attainment -->
<g id="node3" class="node"><title>Attainment</title>
<path fill="none" stroke="black" d="M292.5,-701.5C292.5,-701.5 399.5,-701.5 399.5,-701.5 405.5,-701.5 411.5,-707.5 411.5,-713.5 411.5,-713.5 411.5,-780.5 411.5,-780.5 411.5,-786.5 405.5,-792.5 399.5,-792.5 399.5,-792.5 292.5,-792.5 292.5,-792.5 286.5,-792.5 280.5,-786.5 280.5,-780.5 280.5,-780.5 280.5,-713.5 280.5,-713.5 280.5,-707.5 286.5,-701.5 292.5,-701.5"/>
<text text-anchor="middle" x="346" y="-777.3" font-family="Times,serif" font-size="14.00">Attainment</text>
<polyline fill="none" stroke="black" points="280.5,-769.5 411.5,-769.5 "/>
<text text-anchor="start" x="288.5" y="-754.3" font-family="Times,serif" font-size="14.00">id :INTEGER</text>
<text text-anchor="start" x="288.5" y="-739.3" font-family="Times,serif" font-size="14.00">description :varchar</text>
<text text-anchor="start" x="288.5" y="-724.3" font-family="Times,serif" font-size="14.00">created_at :datetime</text>
<text text-anchor="start" x="288.5" y="-709.3" font-family="Times,serif" font-size="14.00">updated_at :datetime</text>
</g>
<!-- Competence -->
<g id="node5" class="node"><title>Competence</title>
<path fill="none" stroke="black" d="M292.5,-453C292.5,-453 399.5,-453 399.5,-453 405.5,-453 411.5,-459 411.5,-465 411.5,-465 411.5,-547 411.5,-547 411.5,-553 405.5,-559 399.5,-559 399.5,-559 292.5,-559 292.5,-559 286.5,-559 280.5,-553 280.5,-547 280.5,-547 280.5,-465 280.5,-465 280.5,-459 286.5,-453 292.5,-453"/>
<text text-anchor="middle" x="346" y="-543.8" font-family="Times,serif" font-size="14.00">Competence</text>
<polyline fill="none" stroke="black" points="280.5,-536 411.5,-536 "/>
<text text-anchor="start" x="288.5" y="-520.8" font-family="Times,serif" font-size="14.00">id :INTEGER</text>
<text text-anchor="start" x="288.5" y="-505.8" font-family="Times,serif" font-size="14.00">name :varchar</text>
<text text-anchor="start" x="288.5" y="-490.8" font-family="Times,serif" font-size="14.00">code :varchar</text>
<text text-anchor="start" x="288.5" y="-475.8" font-family="Times,serif" font-size="14.00">created_at :datetime</text>
<text text-anchor="start" x="288.5" y="-460.8" font-family="Times,serif" font-size="14.00">updated_at :datetime</text>
</g>
<!-- Attainment&#45;&gt;Competence -->
<g id="edge1" class="edge"><title>Attainment&#45;&gt;Competence</title>
<path fill="none" stroke="#c66f7a" d="M346,-691.307C346,-655.091 346,-607.49 346,-569.735"/>
<polygon fill="#c66f7a" stroke="#c66f7a" points="346,-691.326 341.5,-701.326 346,-696.326 346,-701.326 346,-701.326 346,-701.326 346,-696.326 350.5,-701.326 346,-691.326 346,-691.326"/>
<polygon fill="#c66f7a" stroke="#c66f7a" points="346,-569.365 350.5,-559.365 346,-564.365 346,-559.365 346,-559.365 346,-559.365 346,-564.365 341.5,-559.365 346,-569.365 346,-569.365"/>
</g>
<!-- Choice -->
<g id="node4" class="node"><title>Choice</title>
<path fill="none" stroke="black" d="M573.5,-159C573.5,-159 766.5,-159 766.5,-159 772.5,-159 778.5,-165 778.5,-171 778.5,-171 778.5,-343 778.5,-343 778.5,-349 772.5,-355 766.5,-355 766.5,-355 573.5,-355 573.5,-355 567.5,-355 561.5,-349 561.5,-343 561.5,-343 561.5,-171 561.5,-171 561.5,-165 567.5,-159 573.5,-159"/>
<text text-anchor="middle" x="670" y="-339.8" font-family="Times,serif" font-size="14.00">Choice</text>
<polyline fill="none" stroke="black" points="561.5,-332 778.5,-332 "/>
<text text-anchor="start" x="569.5" y="-316.8" font-family="Times,serif" font-size="14.00">id :INTEGER</text>
<text text-anchor="start" x="569.5" y="-301.8" font-family="Times,serif" font-size="14.00">question_id :integer</text>
<text text-anchor="start" x="569.5" y="-286.8" font-family="Times,serif" font-size="14.00">text_image :integer</text>
<text text-anchor="start" x="569.5" y="-271.8" font-family="Times,serif" font-size="14.00">choice_text :varchar</text>
<text text-anchor="start" x="569.5" y="-256.8" font-family="Times,serif" font-size="14.00">choice_image_file_name :varchar</text>
<text text-anchor="start" x="569.5" y="-241.8" font-family="Times,serif" font-size="14.00">choice_image_content_type :varchar</text>
<text text-anchor="start" x="569.5" y="-226.8" font-family="Times,serif" font-size="14.00">choice_image_file_size :integer</text>
<text text-anchor="start" x="569.5" y="-211.8" font-family="Times,serif" font-size="14.00">choice_image_updated_at :datetime</text>
<text text-anchor="start" x="569.5" y="-196.8" font-family="Times,serif" font-size="14.00">is_correct :boolean</text>
<text text-anchor="start" x="569.5" y="-181.8" font-family="Times,serif" font-size="14.00">created_at :datetime</text>
<text text-anchor="start" x="569.5" y="-166.8" font-family="Times,serif" font-size="14.00">updated_at :datetime</text>
</g>
<!-- Knowledge -->
<g id="node8" class="node"><title>Knowledge</title>
<path fill="none" stroke="black" d="M11.5,-204C11.5,-204 118.5,-204 118.5,-204 124.5,-204 130.5,-210 130.5,-216 130.5,-216 130.5,-298 130.5,-298 130.5,-304 124.5,-310 118.5,-310 118.5,-310 11.5,-310 11.5,-310 5.5,-310 -0.5,-304 -0.5,-298 -0.5,-298 -0.5,-216 -0.5,-216 -0.5,-210 5.5,-204 11.5,-204"/>
<text text-anchor="middle" x="65" y="-294.8" font-family="Times,serif" font-size="14.00">Knowledge</text>
<polyline fill="none" stroke="black" points="-0.5,-287 130.5,-287 "/>
<text text-anchor="start" x="7.5" y="-271.8" font-family="Times,serif" font-size="14.00">id :INTEGER</text>
<text text-anchor="start" x="7.5" y="-256.8" font-family="Times,serif" font-size="14.00">description :varchar</text>
<text text-anchor="start" x="7.5" y="-241.8" font-family="Times,serif" font-size="14.00">discipline_id :integer</text>
<text text-anchor="start" x="7.5" y="-226.8" font-family="Times,serif" font-size="14.00">created_at :datetime</text>
<text text-anchor="start" x="7.5" y="-211.8" font-family="Times,serif" font-size="14.00">updated_at :datetime</text>
</g>
<!-- Competence&#45;&gt;Knowledge -->
<g id="edge5" class="edge"><title>Competence&#45;&gt;Knowledge</title>
<path fill="none" stroke="#81ead7" d="M271.694,-459.419C230.286,-432.148 179.142,-395.235 139,-356 127.384,-344.647 116.128,-331.371 106.046,-318.323"/>
<polygon fill="#81ead7" stroke="#81ead7" points="271.735,-459.446 277.645,-468.683 275.92,-462.181 280.106,-464.916 280.106,-464.916 280.106,-464.916 275.92,-462.181 282.568,-461.148 271.735,-459.446 271.735,-459.446"/>
<polygon fill="#81ead7" stroke="#81ead7" points="105.967,-318.218 103.515,-307.53 102.947,-314.233 99.928,-310.247 99.928,-310.247 99.928,-310.247 102.947,-314.233 96.3411,-312.965 105.967,-318.218 105.967,-318.218"/>
</g>
<!-- Profession -->
<g id="node9" class="node"><title>Profession</title>
<path fill="none" stroke="black" d="M160.5,-181.5C160.5,-181.5 343.5,-181.5 343.5,-181.5 349.5,-181.5 355.5,-187.5 355.5,-193.5 355.5,-193.5 355.5,-320.5 355.5,-320.5 355.5,-326.5 349.5,-332.5 343.5,-332.5 343.5,-332.5 160.5,-332.5 160.5,-332.5 154.5,-332.5 148.5,-326.5 148.5,-320.5 148.5,-320.5 148.5,-193.5 148.5,-193.5 148.5,-187.5 154.5,-181.5 160.5,-181.5"/>
<text text-anchor="middle" x="252" y="-317.3" font-family="Times,serif" font-size="14.00">Profession</text>
<polyline fill="none" stroke="black" points="148.5,-309.5 355.5,-309.5 "/>
<text text-anchor="start" x="156.5" y="-294.3" font-family="Times,serif" font-size="14.00">id :INTEGER</text>
<text text-anchor="start" x="156.5" y="-279.3" font-family="Times,serif" font-size="14.00">min_level_of_compet_test :integer</text>
<text text-anchor="start" x="156.5" y="-264.3" font-family="Times,serif" font-size="14.00">profession_name :varchar</text>
<text text-anchor="start" x="156.5" y="-249.3" font-family="Times,serif" font-size="14.00">level :integer</text>
<text text-anchor="start" x="156.5" y="-234.3" font-family="Times,serif" font-size="14.00">mission :text</text>
<text text-anchor="start" x="156.5" y="-219.3" font-family="Times,serif" font-size="14.00">summary_statement :text</text>
<text text-anchor="start" x="156.5" y="-204.3" font-family="Times,serif" font-size="14.00">created_at :datetime</text>
<text text-anchor="start" x="156.5" y="-189.3" font-family="Times,serif" font-size="14.00">updated_at :datetime</text>
</g>
<!-- Competence&#45;&gt;Profession -->
<g id="edge3" class="edge"><title>Competence&#45;&gt;Profession</title>
<path fill="none" stroke="#5bc35d" d="M322.492,-443.229C310.861,-412.667 296.646,-375.315 284.036,-342.18"/>
<polygon fill="#5bc35d" stroke="#5bc35d" points="322.623,-443.573 321.974,-454.52 324.401,-448.246 326.18,-452.919 326.18,-452.919 326.18,-452.919 324.401,-448.246 330.386,-451.319 322.623,-443.573 322.623,-443.573"/>
<polygon fill="#5bc35d" stroke="#5bc35d" points="283.91,-341.847 284.558,-330.901 282.131,-337.174 280.353,-332.501 280.353,-332.501 280.353,-332.501 282.131,-337.174 276.147,-334.102 283.91,-341.847 283.91,-341.847"/>
</g>
<!-- Skill -->
<g id="node13" class="node"><title>Skill</title>
<path fill="none" stroke="black" d="M385.5,-211.5C385.5,-211.5 492.5,-211.5 492.5,-211.5 498.5,-211.5 504.5,-217.5 504.5,-223.5 504.5,-223.5 504.5,-290.5 504.5,-290.5 504.5,-296.5 498.5,-302.5 492.5,-302.5 492.5,-302.5 385.5,-302.5 385.5,-302.5 379.5,-302.5 373.5,-296.5 373.5,-290.5 373.5,-290.5 373.5,-223.5 373.5,-223.5 373.5,-217.5 379.5,-211.5 385.5,-211.5"/>
<text text-anchor="middle" x="439" y="-287.3" font-family="Times,serif" font-size="14.00">Skill</text>
<polyline fill="none" stroke="black" points="373.5,-279.5 504.5,-279.5 "/>
<text text-anchor="start" x="381.5" y="-264.3" font-family="Times,serif" font-size="14.00">id :INTEGER</text>
<text text-anchor="start" x="381.5" y="-249.3" font-family="Times,serif" font-size="14.00">description :varchar</text>
<text text-anchor="start" x="381.5" y="-234.3" font-family="Times,serif" font-size="14.00">created_at :datetime</text>
<text text-anchor="start" x="381.5" y="-219.3" font-family="Times,serif" font-size="14.00">updated_at :datetime</text>
</g>
<!-- Competence&#45;&gt;Skill -->
<g id="edge4" class="edge"><title>Competence&#45;&gt;Skill</title>
<path fill="none" stroke="#eae295" d="M369.147,-443.524C384.34,-403.172 404.026,-350.889 418.625,-312.114"/>
<polygon fill="#eae295" stroke="#eae295" points="369.133,-443.561 361.398,-451.334 367.371,-448.24 365.609,-452.919 365.609,-452.919 365.609,-452.919 367.371,-448.24 369.821,-454.505 369.133,-443.561 369.133,-443.561"/>
<polygon fill="#eae295" stroke="#eae295" points="418.698,-311.921 426.433,-304.148 420.459,-307.242 422.221,-302.563 422.221,-302.563 422.221,-302.563 420.459,-307.242 418.01,-300.977 418.698,-311.921 418.698,-311.921"/>
</g>
<!-- Task -->
<g id="node14" class="node"><title>Task</title>
<path fill="none" stroke="black" d="M473,-0.5C473,-0.5 593,-0.5 593,-0.5 599,-0.5 605,-6.5 605,-12.5 605,-12.5 605,-109.5 605,-109.5 605,-115.5 599,-121.5 593,-121.5 593,-121.5 473,-121.5 473,-121.5 467,-121.5 461,-115.5 461,-109.5 461,-109.5 461,-12.5 461,-12.5 461,-6.5 467,-0.5 473,-0.5"/>
<text text-anchor="middle" x="533" y="-106.3" font-family="Times,serif" font-size="14.00">Task</text>
<polyline fill="none" stroke="black" points="461,-98.5 605,-98.5 "/>
<text text-anchor="start" x="469" y="-83.3" font-family="Times,serif" font-size="14.00">id :INTEGER</text>
<text text-anchor="start" x="469" y="-68.3" font-family="Times,serif" font-size="14.00">profession_id :integer</text>
<text text-anchor="start" x="469" y="-53.3" font-family="Times,serif" font-size="14.00">competence_id :integer</text>
<text text-anchor="start" x="469" y="-38.3" font-family="Times,serif" font-size="14.00">description :varchar</text>
<text text-anchor="start" x="469" y="-23.3" font-family="Times,serif" font-size="14.00">created_at :datetime</text>
<text text-anchor="start" x="469" y="-8.3" font-family="Times,serif" font-size="14.00">updated_at :datetime</text>
</g>
<!-- Competence&#45;&gt;Task -->
<g id="edge2" class="edge"><title>Competence&#45;&gt;Task</title>
<path fill="none" stroke="#fc7434" d="M418.315,-460.208C453.315,-434.363 492.178,-398.548 513,-356 547.509,-285.483 547.832,-193.865 542.555,-131.782"/>
<ellipse fill="none" stroke="#fc7434" cx="415.067" cy="-462.566" rx="4.00002" ry="4.00002"/>
<polygon fill="#fc7434" stroke="#fc7434" points="542.543,-131.655 546.107,-121.284 542.084,-126.676 541.626,-121.697 541.626,-121.697 541.626,-121.697 542.084,-126.676 537.145,-122.109 542.543,-131.655 542.543,-131.655"/>
</g>
<!-- Discipline -->
<g id="node6" class="node"><title>Discipline</title>
<path fill="none" stroke="black" d="M11.5,-453C11.5,-453 118.5,-453 118.5,-453 124.5,-453 130.5,-459 130.5,-465 130.5,-465 130.5,-547 130.5,-547 130.5,-553 124.5,-559 118.5,-559 118.5,-559 11.5,-559 11.5,-559 5.5,-559 -0.5,-553 -0.5,-547 -0.5,-547 -0.5,-465 -0.5,-465 -0.5,-459 5.5,-453 11.5,-453"/>
<text text-anchor="middle" x="65" y="-543.8" font-family="Times,serif" font-size="14.00">Discipline</text>
<polyline fill="none" stroke="black" points="-0.5,-536 130.5,-536 "/>
<text text-anchor="start" x="7.5" y="-520.8" font-family="Times,serif" font-size="14.00">id :INTEGER</text>
<text text-anchor="start" x="7.5" y="-505.8" font-family="Times,serif" font-size="14.00">name :varchar</text>
<text text-anchor="start" x="7.5" y="-490.8" font-family="Times,serif" font-size="14.00">description :text</text>
<text text-anchor="start" x="7.5" y="-475.8" font-family="Times,serif" font-size="14.00">created_at :datetime</text>
<text text-anchor="start" x="7.5" y="-460.8" font-family="Times,serif" font-size="14.00">updated_at :datetime</text>
</g>
<!-- Discipline&#45;&gt;Knowledge -->
<g id="edge6" class="edge"><title>Discipline&#45;&gt;Knowledge</title>
<path fill="none" stroke="#40035d" d="M65,-444.849C65,-407.137 65,-358.619 65,-320.475"/>
<ellipse fill="none" stroke="#40035d" cx="65" cy="-448.919" rx="4" ry="4"/>
<polygon fill="#40035d" stroke="#40035d" points="65.0001,-320.009 69.5,-310.009 65,-315.009 65,-310.009 65,-310.009 65,-310.009 65,-315.009 60.5,-310.009 65.0001,-320.009 65.0001,-320.009"/>
</g>
<!-- Feedback -->
<g id="node7" class="node"><title>Feedback</title>
<path fill="none" stroke="black" d="M964.5,-679C964.5,-679 1071.5,-679 1071.5,-679 1077.5,-679 1083.5,-685 1083.5,-691 1083.5,-691 1083.5,-803 1083.5,-803 1083.5,-809 1077.5,-815 1071.5,-815 1071.5,-815 964.5,-815 964.5,-815 958.5,-815 952.5,-809 952.5,-803 952.5,-803 952.5,-691 952.5,-691 952.5,-685 958.5,-679 964.5,-679"/>
<text text-anchor="middle" x="1018" y="-799.8" font-family="Times,serif" font-size="14.00">Feedback</text>
<polyline fill="none" stroke="black" points="952.5,-792 1083.5,-792 "/>
<text text-anchor="start" x="960.5" y="-776.8" font-family="Times,serif" font-size="14.00">id :INTEGER</text>
<text text-anchor="start" x="960.5" y="-761.8" font-family="Times,serif" font-size="14.00">name :varchar</text>
<text text-anchor="start" x="960.5" y="-746.8" font-family="Times,serif" font-size="14.00">email :varchar</text>
<text text-anchor="start" x="960.5" y="-731.8" font-family="Times,serif" font-size="14.00">content :varchar</text>
<text text-anchor="start" x="960.5" y="-716.8" font-family="Times,serif" font-size="14.00">ip :varchar</text>
<text text-anchor="start" x="960.5" y="-701.8" font-family="Times,serif" font-size="14.00">created_at :datetime</text>
<text text-anchor="start" x="960.5" y="-686.8" font-family="Times,serif" font-size="14.00">updated_at :datetime</text>
</g>
<!-- Profession&#45;&gt;Accountability -->
<g id="edge8" class="edge"><title>Profession&#45;&gt;Accountability</title>
<path fill="none" stroke="#ede17e" d="M175.775,-175.194C158.437,-156.813 140.345,-137.634 124.087,-120.398"/>
<ellipse fill="none" stroke="#ede17e" cx="178.764" cy="-178.362" rx="4.00002" ry="4.00002"/>
<ellipse fill="#ede17e" stroke="#ede17e" cx="120.929" cy="-117.051" rx="4.00002" ry="4.00002"/>
</g>
<!-- Qualification -->
<g id="node10" class="node"><title>Qualification</title>
<path fill="none" stroke="black" d="M166.5,-8C166.5,-8 277.5,-8 277.5,-8 283.5,-8 289.5,-14 289.5,-20 289.5,-20 289.5,-102 289.5,-102 289.5,-108 283.5,-114 277.5,-114 277.5,-114 166.5,-114 166.5,-114 160.5,-114 154.5,-108 154.5,-102 154.5,-102 154.5,-20 154.5,-20 154.5,-14 160.5,-8 166.5,-8"/>
<text text-anchor="middle" x="222" y="-98.8" font-family="Times,serif" font-size="14.00">Qualification</text>
<polyline fill="none" stroke="black" points="154.5,-91 289.5,-91 "/>
<text text-anchor="start" x="162.5" y="-75.8" font-family="Times,serif" font-size="14.00">id :INTEGER</text>
<text text-anchor="start" x="162.5" y="-60.8" font-family="Times,serif" font-size="14.00">name :varchar</text>
<text text-anchor="start" x="162.5" y="-45.8" font-family="Times,serif" font-size="14.00">profession_id :integer</text>
<text text-anchor="start" x="162.5" y="-30.8" font-family="Times,serif" font-size="14.00">created_at :datetime</text>
<text text-anchor="start" x="162.5" y="-15.8" font-family="Times,serif" font-size="14.00">updated_at :datetime</text>
</g>
<!-- Profession&#45;&gt;Qualification -->
<g id="edge7" class="edge"><title>Profession&#45;&gt;Qualification</title>
<path fill="none" stroke="#b87123" d="M239.216,-173.331C236.573,-156.237 233.836,-138.537 231.343,-122.416"/>
<ellipse fill="none" stroke="#b87123" cx="239.833" cy="-177.319" rx="4.00001" ry="4.00001"/>
<ellipse fill="#b87123" stroke="#b87123" cx="230.674" cy="-118.094" rx="4.00001" ry="4.00001"/>
</g>
<!-- Responsibility -->
<g id="node12" class="node"><title>Responsibility</title>
<path fill="none" stroke="black" d="M319.5,-8C319.5,-8 430.5,-8 430.5,-8 436.5,-8 442.5,-14 442.5,-20 442.5,-20 442.5,-102 442.5,-102 442.5,-108 436.5,-114 430.5,-114 430.5,-114 319.5,-114 319.5,-114 313.5,-114 307.5,-108 307.5,-102 307.5,-102 307.5,-20 307.5,-20 307.5,-14 313.5,-8 319.5,-8"/>
<text text-anchor="middle" x="375" y="-98.8" font-family="Times,serif" font-size="14.00">Responsibility</text>
<polyline fill="none" stroke="black" points="307.5,-91 442.5,-91 "/>
<text text-anchor="start" x="315.5" y="-75.8" font-family="Times,serif" font-size="14.00">id :INTEGER</text>
<text text-anchor="start" x="315.5" y="-60.8" font-family="Times,serif" font-size="14.00">description :text</text>
<text text-anchor="start" x="315.5" y="-45.8" font-family="Times,serif" font-size="14.00">profession_id :integer</text>
<text text-anchor="start" x="315.5" y="-30.8" font-family="Times,serif" font-size="14.00">created_at :datetime</text>
<text text-anchor="start" x="315.5" y="-15.8" font-family="Times,serif" font-size="14.00">updated_at :datetime</text>
</g>
<!-- Profession&#45;&gt;Responsibility -->
<g id="edge9" class="edge"><title>Profession&#45;&gt;Responsibility</title>
<path fill="none" stroke="#8d5d7b" d="M303.739,-174.396C315.054,-156.548 326.822,-137.987 337.458,-121.213"/>
<ellipse fill="none" stroke="#8d5d7b" cx="301.521" cy="-177.894" rx="4.00002" ry="4.00002"/>
<ellipse fill="#8d5d7b" stroke="#8d5d7b" cx="339.8" cy="-117.519" rx="4.00002" ry="4.00002"/>
</g>
<!-- Profession&#45;&gt;Task -->
<g id="edge10" class="edge"><title>Profession&#45;&gt;Task</title>
<path fill="none" stroke="#308a8b" d="M337.233,-176.578C345.993,-169.911 354.991,-163.593 364,-158 399.552,-135.929 414.52,-142.502 451,-122 451.303,-121.83 451.606,-121.659 451.909,-121.487"/>
<ellipse fill="none" stroke="#308a8b" cx="334.06" cy="-179.038" rx="4.00002" ry="4.00002"/>
<polygon fill="#308a8b" stroke="#308a8b" points="452.123,-121.36 463.021,-120.139 456.426,-118.813 460.729,-116.267 460.729,-116.267 460.729,-116.267 456.426,-118.813 458.437,-112.394 452.123,-121.36 452.123,-121.36"/>
</g>
<!-- Question -->
<g id="node11" class="node"><title>Question</title>
<path fill="none" stroke="black" d="M568.5,-393C568.5,-393 771.5,-393 771.5,-393 777.5,-393 783.5,-399 783.5,-405 783.5,-405 783.5,-607 783.5,-607 783.5,-613 777.5,-619 771.5,-619 771.5,-619 568.5,-619 568.5,-619 562.5,-619 556.5,-613 556.5,-607 556.5,-607 556.5,-405 556.5,-405 556.5,-399 562.5,-393 568.5,-393"/>
<text text-anchor="middle" x="670" y="-603.8" font-family="Times,serif" font-size="14.00">Question</text>
<polyline fill="none" stroke="black" points="556.5,-596 783.5,-596 "/>
<text text-anchor="start" x="564.5" y="-580.8" font-family="Times,serif" font-size="14.00">id :INTEGER</text>
<text text-anchor="start" x="564.5" y="-565.8" font-family="Times,serif" font-size="14.00">test_id :integer</text>
<text text-anchor="start" x="564.5" y="-550.8" font-family="Times,serif" font-size="14.00">text_image :integer</text>
<text text-anchor="start" x="564.5" y="-535.8" font-family="Times,serif" font-size="14.00">question_text :varchar</text>
<text text-anchor="start" x="564.5" y="-520.8" font-family="Times,serif" font-size="14.00">question_image_file_name :varchar</text>
<text text-anchor="start" x="564.5" y="-505.8" font-family="Times,serif" font-size="14.00">question_image_content_type :varchar</text>
<text text-anchor="start" x="564.5" y="-490.8" font-family="Times,serif" font-size="14.00">question_image_file_size :integer</text>
<text text-anchor="start" x="564.5" y="-475.8" font-family="Times,serif" font-size="14.00">question_image_updated_at :datetime</text>
<text text-anchor="start" x="564.5" y="-460.8" font-family="Times,serif" font-size="14.00">is_active :boolean</text>
<text text-anchor="start" x="564.5" y="-445.8" font-family="Times,serif" font-size="14.00">difficulty :integer</text>
<text text-anchor="start" x="564.5" y="-430.8" font-family="Times,serif" font-size="14.00">is_open :boolean</text>
<text text-anchor="start" x="564.5" y="-415.8" font-family="Times,serif" font-size="14.00">created_at :datetime</text>
<text text-anchor="start" x="564.5" y="-400.8" font-family="Times,serif" font-size="14.00">updated_at :datetime</text>
</g>
<!-- Question&#45;&gt;Choice -->
<g id="edge11" class="edge"><title>Question&#45;&gt;Choice</title>
<path fill="none" stroke="#0b2450" d="M670,-384.49C670,-378.218 670,-371.936 670,-365.708"/>
<ellipse fill="none" stroke="#0b2450" cx="670" cy="-388.703" rx="4" ry="4"/>
<polygon fill="#0b2450" stroke="#0b2450" points="670,-365.29 674.5,-355.29 670,-360.29 670,-355.29 670,-355.29 670,-355.29 670,-360.29 665.5,-355.29 670,-365.29 670,-365.29"/>
</g>
<!-- Test -->
<g id="node15" class="node"><title>Test</title>
<path fill="none" stroke="black" d="M620,-686.5C620,-686.5 752,-686.5 752,-686.5 758,-686.5 764,-692.5 764,-698.5 764,-698.5 764,-795.5 764,-795.5 764,-801.5 758,-807.5 752,-807.5 752,-807.5 620,-807.5 620,-807.5 614,-807.5 608,-801.5 608,-795.5 608,-795.5 608,-698.5 608,-698.5 608,-692.5 614,-686.5 620,-686.5"/>
<text text-anchor="middle" x="686" y="-792.3" font-family="Times,serif" font-size="14.00">Test</text>
<polyline fill="none" stroke="black" points="608,-784.5 764,-784.5 "/>
<text text-anchor="start" x="616" y="-769.3" font-family="Times,serif" font-size="14.00">id :INTEGER</text>
<text text-anchor="start" x="616" y="-754.3" font-family="Times,serif" font-size="14.00">name :varchar</text>
<text text-anchor="start" x="616" y="-739.3" font-family="Times,serif" font-size="14.00">description :varchar</text>
<text text-anchor="start" x="616" y="-724.3" font-family="Times,serif" font-size="14.00">question_number :integer</text>
<text text-anchor="start" x="616" y="-709.3" font-family="Times,serif" font-size="14.00">created_at :datetime</text>
<text text-anchor="start" x="616" y="-694.3" font-family="Times,serif" font-size="14.00">updated_at :datetime</text>
</g>
<!-- Test&#45;&gt;Question -->
<g id="edge13" class="edge"><title>Test&#45;&gt;Question</title>
<path fill="none" stroke="#46ad36" d="M681.451,-678.052C680.437,-662.907 679.332,-646.395 678.221,-629.798"/>
<ellipse fill="none" stroke="#46ad36" cx="681.737" cy="-682.316" rx="4" ry="4"/>
<polygon fill="#46ad36" stroke="#46ad36" points="678.197,-629.442 682.019,-619.164 677.863,-624.454 677.529,-619.465 677.529,-619.465 677.529,-619.465 677.863,-624.454 673.039,-619.765 678.197,-629.442 678.197,-629.442"/>
</g>
<!-- TestSession -->
<g id="node16" class="node"><title>TestSession</title>
<path fill="none" stroke="black" d="M813.5,-445.5C813.5,-445.5 920.5,-445.5 920.5,-445.5 926.5,-445.5 932.5,-451.5 932.5,-457.5 932.5,-457.5 932.5,-554.5 932.5,-554.5 932.5,-560.5 926.5,-566.5 920.5,-566.5 920.5,-566.5 813.5,-566.5 813.5,-566.5 807.5,-566.5 801.5,-560.5 801.5,-554.5 801.5,-554.5 801.5,-457.5 801.5,-457.5 801.5,-451.5 807.5,-445.5 813.5,-445.5"/>
<text text-anchor="middle" x="867" y="-551.3" font-family="Times,serif" font-size="14.00">TestSession</text>
<polyline fill="none" stroke="black" points="801.5,-543.5 932.5,-543.5 "/>
<text text-anchor="start" x="809.5" y="-528.3" font-family="Times,serif" font-size="14.00">id :INTEGER</text>
<text text-anchor="start" x="809.5" y="-513.3" font-family="Times,serif" font-size="14.00">user_id :integer</text>
<text text-anchor="start" x="809.5" y="-498.3" font-family="Times,serif" font-size="14.00">test_id :integer</text>
<text text-anchor="start" x="809.5" y="-483.3" font-family="Times,serif" font-size="14.00">result :integer</text>
<text text-anchor="start" x="809.5" y="-468.3" font-family="Times,serif" font-size="14.00">created_at :datetime</text>
<text text-anchor="start" x="809.5" y="-453.3" font-family="Times,serif" font-size="14.00">updated_at :datetime</text>
</g>
<!-- Test&#45;&gt;TestSession -->
<g id="edge12" class="edge"><title>Test&#45;&gt;TestSession</title>
<path fill="none" stroke="#6899c9" d="M744.024,-679.891C760.019,-660.909 777.069,-639.942 792,-620 802.617,-605.82 813.471,-590.214 823.507,-575.247"/>
<ellipse fill="none" stroke="#6899c9" cx="741.229" cy="-683.195" rx="4.00002" ry="4.00002"/>
<polygon fill="#6899c9" stroke="#6899c9" points="823.772,-574.848 833.059,-569.016 826.542,-570.685 829.312,-566.523 829.312,-566.523 829.312,-566.523 826.542,-570.685 825.566,-564.03 823.772,-574.848 823.772,-574.848"/>
</g>
<!-- UserAnswer -->
<g id="node18" class="node"><title>UserAnswer</title>
<path fill="none" stroke="black" d="M808.5,-174C808.5,-174 927.5,-174 927.5,-174 933.5,-174 939.5,-180 939.5,-186 939.5,-186 939.5,-328 939.5,-328 939.5,-334 933.5,-340 927.5,-340 927.5,-340 808.5,-340 808.5,-340 802.5,-340 796.5,-334 796.5,-328 796.5,-328 796.5,-186 796.5,-186 796.5,-180 802.5,-174 808.5,-174"/>
<text text-anchor="middle" x="868" y="-324.8" font-family="Times,serif" font-size="14.00">UserAnswer</text>
<polyline fill="none" stroke="black" points="796.5,-317 939.5,-317 "/>
<text text-anchor="start" x="804.5" y="-301.8" font-family="Times,serif" font-size="14.00">id :INTEGER</text>
<text text-anchor="start" x="804.5" y="-286.8" font-family="Times,serif" font-size="14.00">user_id :integer</text>
<text text-anchor="start" x="804.5" y="-271.8" font-family="Times,serif" font-size="14.00">question_id :integer</text>
<text text-anchor="start" x="804.5" y="-256.8" font-family="Times,serif" font-size="14.00">choice_id :integer</text>
<text text-anchor="start" x="804.5" y="-241.8" font-family="Times,serif" font-size="14.00">choice_self :varchar</text>
<text text-anchor="start" x="804.5" y="-226.8" font-family="Times,serif" font-size="14.00">is_correct :boolean</text>
<text text-anchor="start" x="804.5" y="-211.8" font-family="Times,serif" font-size="14.00">test_session_id :integer</text>
<text text-anchor="start" x="804.5" y="-196.8" font-family="Times,serif" font-size="14.00">created_at :datetime</text>
<text text-anchor="start" x="804.5" y="-181.8" font-family="Times,serif" font-size="14.00">updated_at :datetime</text>
</g>
<!-- TestSession&#45;&gt;UserAnswer -->
<g id="edge14" class="edge"><title>TestSession&#45;&gt;UserAnswer</title>
<path fill="none" stroke="#f6b04a" d="M867.276,-436.912C867.384,-410.114 867.51,-378.925 867.627,-350.163"/>
<ellipse fill="none" stroke="#f6b04a" cx="867.258" cy="-441.208" rx="4" ry="4"/>
<polygon fill="#f6b04a" stroke="#f6b04a" points="867.627,-350.103 872.168,-340.121 867.647,-345.103 867.668,-340.103 867.668,-340.103 867.668,-340.103 867.647,-345.103 863.168,-340.084 867.627,-350.103 867.627,-350.103"/>
</g>
<!-- User -->
<g id="node17" class="node"><title>User</title>
<path fill="none" stroke="black" d="M811.5,-656.5C811.5,-656.5 922.5,-656.5 922.5,-656.5 928.5,-656.5 934.5,-662.5 934.5,-668.5 934.5,-668.5 934.5,-825.5 934.5,-825.5 934.5,-831.5 928.5,-837.5 922.5,-837.5 922.5,-837.5 811.5,-837.5 811.5,-837.5 805.5,-837.5 799.5,-831.5 799.5,-825.5 799.5,-825.5 799.5,-668.5 799.5,-668.5 799.5,-662.5 805.5,-656.5 811.5,-656.5"/>
<text text-anchor="middle" x="867" y="-822.3" font-family="Times,serif" font-size="14.00">User</text>
<polyline fill="none" stroke="black" points="799.5,-814.5 934.5,-814.5 "/>
<text text-anchor="start" x="807.5" y="-799.3" font-family="Times,serif" font-size="14.00">id :INTEGER</text>
<text text-anchor="start" x="807.5" y="-784.3" font-family="Times,serif" font-size="14.00">name :varchar</text>
<text text-anchor="start" x="807.5" y="-769.3" font-family="Times,serif" font-size="14.00">login :varchar</text>
<text text-anchor="start" x="807.5" y="-754.3" font-family="Times,serif" font-size="14.00">password :varchar</text>
<text text-anchor="start" x="807.5" y="-739.3" font-family="Times,serif" font-size="14.00">email :varchar</text>
<text text-anchor="start" x="807.5" y="-724.3" font-family="Times,serif" font-size="14.00">profession_id :integer</text>
<text text-anchor="start" x="807.5" y="-709.3" font-family="Times,serif" font-size="14.00">rating :integer</text>
<text text-anchor="start" x="807.5" y="-694.3" font-family="Times,serif" font-size="14.00">group :integer</text>
<text text-anchor="start" x="807.5" y="-679.3" font-family="Times,serif" font-size="14.00">created_at :datetime</text>
<text text-anchor="start" x="807.5" y="-664.3" font-family="Times,serif" font-size="14.00">updated_at :datetime</text>
</g>
<!-- User&#45;&gt;TestSession -->
<g id="edge15" class="edge"><title>User&#45;&gt;TestSession</title>
<path fill="none" stroke="#020838" d="M867,-648.198C867,-624.245 867,-599.088 867,-576.754"/>
<ellipse fill="none" stroke="#020838" cx="867" cy="-652.325" rx="4" ry="4"/>
<polygon fill="#020838" stroke="#020838" points="867,-576.705 871.5,-566.705 867,-571.705 867,-566.705 867,-566.705 867,-566.705 867,-571.705 862.5,-566.705 867,-576.705 867,-576.705"/>
</g>
</g>
</svg>
