<?xml version="1.0" encoding="UTF-8" standalone="no"?>
<!DOCTYPE svg PUBLIC "-//W3C//DTD SVG 1.1//EN"
 "http://www.w3.org/Graphics/SVG/1.1/DTD/svg11.dtd">
<!-- Generated by graphviz version 2.36.0 (20140111.2315)
 -->
<!-- Title: models_diagram Pages: 1 -->
<svg width="1210pt" height="866pt"
 viewBox="0.00 0.00 1210.00 866.00" xmlns="http://www.w3.org/2000/svg" xmlns:xlink="http://www.w3.org/1999/xlink">
<g id="graph0" class="graph" transform="scale(1 1) rotate(0) translate(4 862)">
<title>models_diagram</title>
<polygon fill="none" stroke="none" points="-4,4 -4,-862 1206,-862 1206,4 -4,4"/>
<!-- _diagram_info -->
<g id="node1" class="node"><title>_diagram_info</title>
<text text-anchor="start" x="102" y="-791.6" font-family="Times,serif" font-size="13.00">Models diagram</text>
<text text-anchor="start" x="102" y="-777.6" font-family="Times,serif" font-size="13.00">Date: Dec 11 2015 &#45; 04:36</text>
<text text-anchor="start" x="102" y="-763.6" font-family="Times,serif" font-size="13.00">Migration version: 20151211020557</text>
<text text-anchor="start" x="102" y="-749.6" font-family="Times,serif" font-size="13.00">Generated by RailRoady 1.4.2</text>
<text text-anchor="start" x="102" y="-735.6" font-family="Times,serif" font-size="13.00">http://railroady.prestonlee.com</text>
</g>
<!-- Accountability -->
<g id="node2" class="node"><title>Accountability</title>
<path fill="none" stroke="black" d="M13.5,-8C13.5,-8 124.5,-8 124.5,-8 130.5,-8 136.5,-14 136.5,-20 136.5,-20 136.5,-102 136.5,-102 136.5,-108 130.5,-114 124.5,-114 124.5,-114 13.5,-114 13.5,-114 7.5,-114 1.5,-108 1.5,-102 1.5,-102 1.5,-20 1.5,-20 1.5,-14 7.5,-8 13.5,-8"/>
<text text-anchor="middle" x="69" y="-98.8" font-family="Times,serif" font-size="14.00">Accountability</text>
<polyline fill="none" stroke="black" points="1.5,-91 136.5,-91 "/>
<text text-anchor="start" x="9.5" y="-75.8" font-family="Times,serif" font-size="14.00">id :INTEGER</text>
<text text-anchor="start" x="9.5" y="-60.8" font-family="Times,serif" font-size="14.00">description :text</text>
<text text-anchor="start" x="9.5" y="-45.8" font-family="Times,serif" font-size="14.00">profession_id :integer</text>
<text text-anchor="start" x="9.5" y="-30.8" font-family="Times,serif" font-size="14.00">created_at :datetime</text>
<text text-anchor="start" x="9.5" y="-15.8" font-family="Times,serif" font-size="14.00">updated_at :datetime</text>
</g>
<!-- Attainment -->
<g id="node3" class="node"><title>Attainment</title>
<path fill="none" stroke="black" d="M338.5,-721.5C338.5,-721.5 445.5,-721.5 445.5,-721.5 451.5,-721.5 457.5,-727.5 457.5,-733.5 457.5,-733.5 457.5,-800.5 457.5,-800.5 457.5,-806.5 451.5,-812.5 445.5,-812.5 445.5,-812.5 338.5,-812.5 338.5,-812.5 332.5,-812.5 326.5,-806.5 326.5,-800.5 326.5,-800.5 326.5,-733.5 326.5,-733.5 326.5,-727.5 332.5,-721.5 338.5,-721.5"/>
<text text-anchor="middle" x="392" y="-797.3" font-family="Times,serif" font-size="14.00">Attainment</text>
<polyline fill="none" stroke="black" points="326.5,-789.5 457.5,-789.5 "/>
<text text-anchor="start" x="334.5" y="-774.3" font-family="Times,serif" font-size="14.00">id :INTEGER</text>
<text text-anchor="start" x="334.5" y="-759.3" font-family="Times,serif" font-size="14.00">description :varchar</text>
<text text-anchor="start" x="334.5" y="-744.3" font-family="Times,serif" font-size="14.00">created_at :datetime</text>
<text text-anchor="start" x="334.5" y="-729.3" font-family="Times,serif" font-size="14.00">updated_at :datetime</text>
</g>
<!-- Competence -->
<g id="node5" class="node"><title>Competence</title>
<path fill="none" stroke="black" d="M338.5,-457C338.5,-457 445.5,-457 445.5,-457 451.5,-457 457.5,-463 457.5,-469 457.5,-469 457.5,-551 457.5,-551 457.5,-557 451.5,-563 445.5,-563 445.5,-563 338.5,-563 338.5,-563 332.5,-563 326.5,-557 326.5,-551 326.5,-551 326.5,-469 326.5,-469 326.5,-463 332.5,-457 338.5,-457"/>
<text text-anchor="middle" x="392" y="-547.8" font-family="Times,serif" font-size="14.00">Competence</text>
<polyline fill="none" stroke="black" points="326.5,-540 457.5,-540 "/>
<text text-anchor="start" x="334.5" y="-524.8" font-family="Times,serif" font-size="14.00">id :INTEGER</text>
<text text-anchor="start" x="334.5" y="-509.8" font-family="Times,serif" font-size="14.00">name :varchar</text>
<text text-anchor="start" x="334.5" y="-494.8" font-family="Times,serif" font-size="14.00">code :varchar</text>
<text text-anchor="start" x="334.5" y="-479.8" font-family="Times,serif" font-size="14.00">created_at :datetime</text>
<text text-anchor="start" x="334.5" y="-464.8" font-family="Times,serif" font-size="14.00">updated_at :datetime</text>
</g>
<!-- Attainment&#45;&gt;Competence -->
<g id="edge1" class="edge"><title>Attainment&#45;&gt;Competence</title>
<path fill="none" stroke="#e0c9d0" d="M392,-711.096C392,-670.595 392,-615.437 392,-573.289"/>
<polygon fill="#e0c9d0" stroke="#e0c9d0" points="392,-711.291 387.5,-721.291 392,-716.291 392,-721.291 392,-721.291 392,-721.291 392,-716.291 396.5,-721.291 392,-711.291 392,-711.291"/>
<polygon fill="#e0c9d0" stroke="#e0c9d0" points="392,-573.144 396.5,-563.144 392,-568.144 392,-563.144 392,-563.144 392,-563.144 392,-568.144 387.5,-563.144 392,-573.144 392,-573.144"/>
</g>
<!-- Choice -->
<g id="node4" class="node"><title>Choice</title>
<path fill="none" stroke="black" d="M573.5,-161C573.5,-161 766.5,-161 766.5,-161 772.5,-161 778.5,-167 778.5,-173 778.5,-173 778.5,-345 778.5,-345 778.5,-351 772.5,-357 766.5,-357 766.5,-357 573.5,-357 573.5,-357 567.5,-357 561.5,-351 561.5,-345 561.5,-345 561.5,-173 561.5,-173 561.5,-167 567.5,-161 573.5,-161"/>
<text text-anchor="middle" x="670" y="-341.8" font-family="Times,serif" font-size="14.00">Choice</text>
<polyline fill="none" stroke="black" points="561.5,-334 778.5,-334 "/>
<text text-anchor="start" x="569.5" y="-318.8" font-family="Times,serif" font-size="14.00">id :INTEGER</text>
<text text-anchor="start" x="569.5" y="-303.8" font-family="Times,serif" font-size="14.00">question_id :integer</text>
<text text-anchor="start" x="569.5" y="-288.8" font-family="Times,serif" font-size="14.00">text_image :integer</text>
<text text-anchor="start" x="569.5" y="-273.8" font-family="Times,serif" font-size="14.00">choice_text :varchar</text>
<text text-anchor="start" x="569.5" y="-258.8" font-family="Times,serif" font-size="14.00">choice_image_file_name :varchar</text>
<text text-anchor="start" x="569.5" y="-243.8" font-family="Times,serif" font-size="14.00">choice_image_content_type :varchar</text>
<text text-anchor="start" x="569.5" y="-228.8" font-family="Times,serif" font-size="14.00">choice_image_file_size :integer</text>
<text text-anchor="start" x="569.5" y="-213.8" font-family="Times,serif" font-size="14.00">choice_image_updated_at :datetime</text>
<text text-anchor="start" x="569.5" y="-198.8" font-family="Times,serif" font-size="14.00">is_correct :boolean</text>
<text text-anchor="start" x="569.5" y="-183.8" font-family="Times,serif" font-size="14.00">created_at :datetime</text>
<text text-anchor="start" x="569.5" y="-168.8" font-family="Times,serif" font-size="14.00">updated_at :datetime</text>
</g>
<!-- Knowledge -->
<g id="node8" class="node"><title>Knowledge</title>
<path fill="none" stroke="black" d="M11.5,-206C11.5,-206 118.5,-206 118.5,-206 124.5,-206 130.5,-212 130.5,-218 130.5,-218 130.5,-300 130.5,-300 130.5,-306 124.5,-312 118.5,-312 118.5,-312 11.5,-312 11.5,-312 5.5,-312 -0.5,-306 -0.5,-300 -0.5,-300 -0.5,-218 -0.5,-218 -0.5,-212 5.5,-206 11.5,-206"/>
<text text-anchor="middle" x="65" y="-296.8" font-family="Times,serif" font-size="14.00">Knowledge</text>
<polyline fill="none" stroke="black" points="-0.5,-289 130.5,-289 "/>
<text text-anchor="start" x="7.5" y="-273.8" font-family="Times,serif" font-size="14.00">id :INTEGER</text>
<text text-anchor="start" x="7.5" y="-258.8" font-family="Times,serif" font-size="14.00">description :varchar</text>
<text text-anchor="start" x="7.5" y="-243.8" font-family="Times,serif" font-size="14.00">discipline_id :integer</text>
<text text-anchor="start" x="7.5" y="-228.8" font-family="Times,serif" font-size="14.00">created_at :datetime</text>
<text text-anchor="start" x="7.5" y="-213.8" font-family="Times,serif" font-size="14.00">updated_at :datetime</text>
</g>
<!-- Competence&#45;&gt;Knowledge -->
<g id="edge5" class="edge"><title>Competence&#45;&gt;Knowledge</title>
<path fill="none" stroke="#f22988" d="M317.311,-474.165C264.08,-447.122 192.727,-406.185 139,-358 126.711,-346.978 115.086,-333.659 104.847,-320.44"/>
<polygon fill="#f22988" stroke="#f22988" points="317.427,-474.224 324.338,-482.738 321.894,-476.471 326.36,-478.718 326.36,-478.718 326.36,-478.718 321.894,-476.471 328.383,-474.698 317.427,-474.224 317.427,-474.224"/>
<polygon fill="#f22988" stroke="#f22988" points="104.684,-320.224 102.25,-309.531 101.671,-316.233 98.6584,-312.243 98.6584,-312.243 98.6584,-312.243 101.671,-316.233 95.0672,-314.955 104.684,-320.224 104.684,-320.224"/>
</g>
<!-- Profession -->
<g id="node9" class="node"><title>Profession</title>
<path fill="none" stroke="black" d="M160.5,-183.5C160.5,-183.5 343.5,-183.5 343.5,-183.5 349.5,-183.5 355.5,-189.5 355.5,-195.5 355.5,-195.5 355.5,-322.5 355.5,-322.5 355.5,-328.5 349.5,-334.5 343.5,-334.5 343.5,-334.5 160.5,-334.5 160.5,-334.5 154.5,-334.5 148.5,-328.5 148.5,-322.5 148.5,-322.5 148.5,-195.5 148.5,-195.5 148.5,-189.5 154.5,-183.5 160.5,-183.5"/>
<text text-anchor="middle" x="252" y="-319.3" font-family="Times,serif" font-size="14.00">Profession</text>
<polyline fill="none" stroke="black" points="148.5,-311.5 355.5,-311.5 "/>
<text text-anchor="start" x="156.5" y="-296.3" font-family="Times,serif" font-size="14.00">id :INTEGER</text>
<text text-anchor="start" x="156.5" y="-281.3" font-family="Times,serif" font-size="14.00">min_level_of_compet_test :integer</text>
<text text-anchor="start" x="156.5" y="-266.3" font-family="Times,serif" font-size="14.00">profession_name :varchar</text>
<text text-anchor="start" x="156.5" y="-251.3" font-family="Times,serif" font-size="14.00">level :integer</text>
<text text-anchor="start" x="156.5" y="-236.3" font-family="Times,serif" font-size="14.00">mission :text</text>
<text text-anchor="start" x="156.5" y="-221.3" font-family="Times,serif" font-size="14.00">summary_statement :text</text>
<text text-anchor="start" x="156.5" y="-206.3" font-family="Times,serif" font-size="14.00">created_at :datetime</text>
<text text-anchor="start" x="156.5" y="-191.3" font-family="Times,serif" font-size="14.00">updated_at :datetime</text>
</g>
<!-- Competence&#45;&gt;Profession -->
<g id="edge3" class="edge"><title>Competence&#45;&gt;Profession</title>
<path fill="none" stroke="#969b9b" d="M357.629,-447.868C340.01,-416.532 318.285,-377.892 299.127,-343.82"/>
<polygon fill="#969b9b" stroke="#969b9b" points="357.75,-448.085 358.729,-459.007 360.201,-452.443 362.651,-456.801 362.651,-456.801 362.651,-456.801 360.201,-452.443 366.574,-454.596 357.75,-448.085 357.75,-448.085"/>
<polygon fill="#969b9b" stroke="#969b9b" points="298.959,-343.52 297.981,-332.598 296.508,-339.161 294.058,-334.803 294.058,-334.803 294.058,-334.803 296.508,-339.161 290.135,-337.009 298.959,-343.52 298.959,-343.52"/>
</g>
<!-- Skill -->
<g id="node13" class="node"><title>Skill</title>
<path fill="none" stroke="black" d="M385.5,-213.5C385.5,-213.5 492.5,-213.5 492.5,-213.5 498.5,-213.5 504.5,-219.5 504.5,-225.5 504.5,-225.5 504.5,-292.5 504.5,-292.5 504.5,-298.5 498.5,-304.5 492.5,-304.5 492.5,-304.5 385.5,-304.5 385.5,-304.5 379.5,-304.5 373.5,-298.5 373.5,-292.5 373.5,-292.5 373.5,-225.5 373.5,-225.5 373.5,-219.5 379.5,-213.5 385.5,-213.5"/>
<text text-anchor="middle" x="439" y="-289.3" font-family="Times,serif" font-size="14.00">Skill</text>
<polyline fill="none" stroke="black" points="373.5,-281.5 504.5,-281.5 "/>
<text text-anchor="start" x="381.5" y="-266.3" font-family="Times,serif" font-size="14.00">id :INTEGER</text>
<text text-anchor="start" x="381.5" y="-251.3" font-family="Times,serif" font-size="14.00">description :varchar</text>
<text text-anchor="start" x="381.5" y="-236.3" font-family="Times,serif" font-size="14.00">created_at :datetime</text>
<text text-anchor="start" x="381.5" y="-221.3" font-family="Times,serif" font-size="14.00">updated_at :datetime</text>
</g>
<!-- Competence&#45;&gt;Skill -->
<g id="edge4" class="edge"><title>Competence&#45;&gt;Skill</title>
<path fill="none" stroke="#2c9c5d" d="M403.751,-446.744C411.41,-406.168 421.31,-353.717 428.668,-314.737"/>
<polygon fill="#2c9c5d" stroke="#2c9c5d" points="403.708,-446.975 397.431,-455.967 402.78,-451.888 401.853,-456.801 401.853,-456.801 401.853,-456.801 402.78,-451.888 406.275,-457.636 403.708,-446.975 403.708,-446.975"/>
<polygon fill="#2c9c5d" stroke="#2c9c5d" points="428.721,-314.455 434.998,-305.463 429.649,-309.542 430.576,-304.628 430.576,-304.628 430.576,-304.628 429.649,-309.542 426.154,-303.794 428.721,-314.455 428.721,-314.455"/>
</g>
<!-- Task -->
<g id="node14" class="node"><title>Task</title>
<path fill="none" stroke="black" d="M473,-0.5C473,-0.5 593,-0.5 593,-0.5 599,-0.5 605,-6.5 605,-12.5 605,-12.5 605,-109.5 605,-109.5 605,-115.5 599,-121.5 593,-121.5 593,-121.5 473,-121.5 473,-121.5 467,-121.5 461,-115.5 461,-109.5 461,-109.5 461,-12.5 461,-12.5 461,-6.5 467,-0.5 473,-0.5"/>
<text text-anchor="middle" x="533" y="-106.3" font-family="Times,serif" font-size="14.00">Task</text>
<polyline fill="none" stroke="black" points="461,-98.5 605,-98.5 "/>
<text text-anchor="start" x="469" y="-83.3" font-family="Times,serif" font-size="14.00">id :INTEGER</text>
<text text-anchor="start" x="469" y="-68.3" font-family="Times,serif" font-size="14.00">profession_id :integer</text>
<text text-anchor="start" x="469" y="-53.3" font-family="Times,serif" font-size="14.00">competence_id :integer</text>
<text text-anchor="start" x="469" y="-38.3" font-family="Times,serif" font-size="14.00">description :varchar</text>
<text text-anchor="start" x="469" y="-23.3" font-family="Times,serif" font-size="14.00">created_at :datetime</text>
<text text-anchor="start" x="469" y="-8.3" font-family="Times,serif" font-size="14.00">updated_at :datetime</text>
</g>
<!-- Competence&#45;&gt;Task -->
<g id="edge2" class="edge"><title>Competence&#45;&gt;Task</title>
<path fill="none" stroke="#18421e" d="M452.569,-450.736C475.692,-424.703 499.678,-392.195 513,-358 541.604,-284.58 543.164,-193.204 539.787,-131.552"/>
<ellipse fill="none" stroke="#18421e" cx="449.711" cy="-453.901" rx="4.00002" ry="4.00002"/>
<polygon fill="#18421e" stroke="#18421e" points="539.785,-131.522 543.672,-121.268 539.483,-126.531 539.18,-121.54 539.18,-121.54 539.18,-121.54 539.483,-126.531 534.689,-121.812 539.785,-131.522 539.785,-131.522"/>
</g>
<!-- Discipline -->
<g id="node6" class="node"><title>Discipline</title>
<path fill="none" stroke="black" d="M11.5,-457C11.5,-457 118.5,-457 118.5,-457 124.5,-457 130.5,-463 130.5,-469 130.5,-469 130.5,-551 130.5,-551 130.5,-557 124.5,-563 118.5,-563 118.5,-563 11.5,-563 11.5,-563 5.5,-563 -0.5,-557 -0.5,-551 -0.5,-551 -0.5,-469 -0.5,-469 -0.5,-463 5.5,-457 11.5,-457"/>
<text text-anchor="middle" x="65" y="-547.8" font-family="Times,serif" font-size="14.00">Discipline</text>
<polyline fill="none" stroke="black" points="-0.5,-540 130.5,-540 "/>
<text text-anchor="start" x="7.5" y="-524.8" font-family="Times,serif" font-size="14.00">id :INTEGER</text>
<text text-anchor="start" x="7.5" y="-509.8" font-family="Times,serif" font-size="14.00">name :varchar</text>
<text text-anchor="start" x="7.5" y="-494.8" font-family="Times,serif" font-size="14.00">description :text</text>
<text text-anchor="start" x="7.5" y="-479.8" font-family="Times,serif" font-size="14.00">created_at :datetime</text>
<text text-anchor="start" x="7.5" y="-464.8" font-family="Times,serif" font-size="14.00">updated_at :datetime</text>
</g>
<!-- Discipline&#45;&gt;Knowledge -->
<g id="edge6" class="edge"><title>Discipline&#45;&gt;Knowledge</title>
<path fill="none" stroke="#8b987f" d="M65,-448.64C65,-410.333 65,-360.881 65,-322.22"/>
<ellipse fill="none" stroke="#8b987f" cx="65" cy="-452.801" rx="4" ry="4"/>
<polygon fill="#8b987f" stroke="#8b987f" points="65.0001,-322.13 69.5,-312.13 65,-317.13 65,-312.13 65,-312.13 65,-312.13 65,-317.13 60.5,-312.13 65.0001,-322.13 65.0001,-322.13"/>
</g>
<!-- Feedback -->
<g id="node7" class="node"><title>Feedback</title>
<path fill="none" stroke="black" d="M1083.5,-699C1083.5,-699 1190.5,-699 1190.5,-699 1196.5,-699 1202.5,-705 1202.5,-711 1202.5,-711 1202.5,-823 1202.5,-823 1202.5,-829 1196.5,-835 1190.5,-835 1190.5,-835 1083.5,-835 1083.5,-835 1077.5,-835 1071.5,-829 1071.5,-823 1071.5,-823 1071.5,-711 1071.5,-711 1071.5,-705 1077.5,-699 1083.5,-699"/>
<text text-anchor="middle" x="1137" y="-819.8" font-family="Times,serif" font-size="14.00">Feedback</text>
<polyline fill="none" stroke="black" points="1071.5,-812 1202.5,-812 "/>
<text text-anchor="start" x="1079.5" y="-796.8" font-family="Times,serif" font-size="14.00">id :INTEGER</text>
<text text-anchor="start" x="1079.5" y="-781.8" font-family="Times,serif" font-size="14.00">name :varchar</text>
<text text-anchor="start" x="1079.5" y="-766.8" font-family="Times,serif" font-size="14.00">email :varchar</text>
<text text-anchor="start" x="1079.5" y="-751.8" font-family="Times,serif" font-size="14.00">content :varchar</text>
<text text-anchor="start" x="1079.5" y="-736.8" font-family="Times,serif" font-size="14.00">ip :varchar</text>
<text text-anchor="start" x="1079.5" y="-721.8" font-family="Times,serif" font-size="14.00">created_at :datetime</text>
<text text-anchor="start" x="1079.5" y="-706.8" font-family="Times,serif" font-size="14.00">updated_at :datetime</text>
</g>
<!-- Profession&#45;&gt;Accountability -->
<g id="edge8" class="edge"><title>Profession&#45;&gt;Accountability</title>
<path fill="none" stroke="#56ea55" d="M176.712,-177.364C158.834,-158.216 140.103,-138.154 123.368,-120.23"/>
<ellipse fill="none" stroke="#56ea55" cx="179.564" cy="-180.418" rx="4.00002" ry="4.00002"/>
<ellipse fill="#56ea55" stroke="#56ea55" cx="120.503" cy="-117.162" rx="4.00002" ry="4.00002"/>
</g>
<!-- Qualification -->
<g id="node10" class="node"><title>Qualification</title>
<path fill="none" stroke="black" d="M166.5,-8C166.5,-8 277.5,-8 277.5,-8 283.5,-8 289.5,-14 289.5,-20 289.5,-20 289.5,-102 289.5,-102 289.5,-108 283.5,-114 277.5,-114 277.5,-114 166.5,-114 166.5,-114 160.5,-114 154.5,-108 154.5,-102 154.5,-102 154.5,-20 154.5,-20 154.5,-14 160.5,-8 166.5,-8"/>
<text text-anchor="middle" x="222" y="-98.8" font-family="Times,serif" font-size="14.00">Qualification</text>
<polyline fill="none" stroke="black" points="154.5,-91 289.5,-91 "/>
<text text-anchor="start" x="162.5" y="-75.8" font-family="Times,serif" font-size="14.00">id :INTEGER</text>
<text text-anchor="start" x="162.5" y="-60.8" font-family="Times,serif" font-size="14.00">name :varchar</text>
<text text-anchor="start" x="162.5" y="-45.8" font-family="Times,serif" font-size="14.00">profession_id :integer</text>
<text text-anchor="start" x="162.5" y="-30.8" font-family="Times,serif" font-size="14.00">created_at :datetime</text>
<text text-anchor="start" x="162.5" y="-15.8" font-family="Times,serif" font-size="14.00">updated_at :datetime</text>
</g>
<!-- Profession&#45;&gt;Qualification -->
<g id="edge7" class="edge"><title>Profession&#45;&gt;Qualification</title>
<path fill="none" stroke="#c1a94f" d="M239.323,-175.174C236.606,-157.425 233.785,-138.995 231.228,-122.289"/>
<ellipse fill="none" stroke="#c1a94f" cx="239.967" cy="-179.388" rx="4.00001" ry="4.00001"/>
<ellipse fill="#c1a94f" stroke="#c1a94f" cx="230.601" cy="-118.192" rx="4.00001" ry="4.00001"/>
</g>
<!-- Responsibility -->
<g id="node12" class="node"><title>Responsibility</title>
<path fill="none" stroke="black" d="M319.5,-8C319.5,-8 430.5,-8 430.5,-8 436.5,-8 442.5,-14 442.5,-20 442.5,-20 442.5,-102 442.5,-102 442.5,-108 436.5,-114 430.5,-114 430.5,-114 319.5,-114 319.5,-114 313.5,-114 307.5,-108 307.5,-102 307.5,-102 307.5,-20 307.5,-20 307.5,-14 313.5,-8 319.5,-8"/>
<text text-anchor="middle" x="375" y="-98.8" font-family="Times,serif" font-size="14.00">Responsibility</text>
<polyline fill="none" stroke="black" points="307.5,-91 442.5,-91 "/>
<text text-anchor="start" x="315.5" y="-75.8" font-family="Times,serif" font-size="14.00">id :INTEGER</text>
<text text-anchor="start" x="315.5" y="-60.8" font-family="Times,serif" font-size="14.00">description :text</text>
<text text-anchor="start" x="315.5" y="-45.8" font-family="Times,serif" font-size="14.00">profession_id :integer</text>
<text text-anchor="start" x="315.5" y="-30.8" font-family="Times,serif" font-size="14.00">created_at :datetime</text>
<text text-anchor="start" x="315.5" y="-15.8" font-family="Times,serif" font-size="14.00">updated_at :datetime</text>
</g>
<!-- Profession&#45;&gt;Responsibility -->
<g id="edge9" class="edge"><title>Profession&#45;&gt;Responsibility</title>
<path fill="none" stroke="#0b674e" d="M303.118,-176.544C314.79,-157.945 326.975,-138.528 337.926,-121.077"/>
<ellipse fill="none" stroke="#0b674e" cx="300.978" cy="-179.954" rx="4.00002" ry="4.00002"/>
<ellipse fill="#0b674e" stroke="#0b674e" cx="340.092" cy="-117.626" rx="4.00002" ry="4.00002"/>
</g>
<!-- Profession&#45;&gt;Task -->
<g id="edge10" class="edge"><title>Profession&#45;&gt;Task</title>
<path fill="none" stroke="#fb50d4" d="M337.858,-178.372C346.433,-171.81 355.22,-165.57 364,-160 399.629,-137.397 414.42,-143.029 451,-122 451.301,-121.827 451.602,-121.653 451.904,-121.478"/>
<ellipse fill="none" stroke="#fb50d4" cx="334.501" cy="-180.989" rx="4.00002" ry="4.00002"/>
<polygon fill="#fb50d4" stroke="#fb50d4" points="452.118,-121.349 463.006,-120.042 456.401,-118.768 460.684,-116.188 460.684,-116.188 460.684,-116.188 456.401,-118.768 458.361,-112.333 452.118,-121.349 452.118,-121.349"/>
</g>
<!-- Question -->
<g id="node11" class="node"><title>Question</title>
<path fill="none" stroke="black" d="M568.5,-397C568.5,-397 771.5,-397 771.5,-397 777.5,-397 783.5,-403 783.5,-409 783.5,-409 783.5,-611 783.5,-611 783.5,-617 777.5,-623 771.5,-623 771.5,-623 568.5,-623 568.5,-623 562.5,-623 556.5,-617 556.5,-611 556.5,-611 556.5,-409 556.5,-409 556.5,-403 562.5,-397 568.5,-397"/>
<text text-anchor="middle" x="670" y="-607.8" font-family="Times,serif" font-size="14.00">Question</text>
<polyline fill="none" stroke="black" points="556.5,-600 783.5,-600 "/>
<text text-anchor="start" x="564.5" y="-584.8" font-family="Times,serif" font-size="14.00">id :INTEGER</text>
<text text-anchor="start" x="564.5" y="-569.8" font-family="Times,serif" font-size="14.00">test_id :integer</text>
<text text-anchor="start" x="564.5" y="-554.8" font-family="Times,serif" font-size="14.00">text_image :integer</text>
<text text-anchor="start" x="564.5" y="-539.8" font-family="Times,serif" font-size="14.00">question_text :varchar</text>
<text text-anchor="start" x="564.5" y="-524.8" font-family="Times,serif" font-size="14.00">question_image_file_name :varchar</text>
<text text-anchor="start" x="564.5" y="-509.8" font-family="Times,serif" font-size="14.00">question_image_content_type :varchar</text>
<text text-anchor="start" x="564.5" y="-494.8" font-family="Times,serif" font-size="14.00">question_image_file_size :integer</text>
<text text-anchor="start" x="564.5" y="-479.8" font-family="Times,serif" font-size="14.00">question_image_updated_at :datetime</text>
<text text-anchor="start" x="564.5" y="-464.8" font-family="Times,serif" font-size="14.00">is_active :boolean</text>
<text text-anchor="start" x="564.5" y="-449.8" font-family="Times,serif" font-size="14.00">difficulty :integer</text>
<text text-anchor="start" x="564.5" y="-434.8" font-family="Times,serif" font-size="14.00">is_open :boolean</text>
<text text-anchor="start" x="564.5" y="-419.8" font-family="Times,serif" font-size="14.00">created_at :datetime</text>
<text text-anchor="start" x="564.5" y="-404.8" font-family="Times,serif" font-size="14.00">updated_at :datetime</text>
</g>
<!-- Question&#45;&gt;Choice -->
<g id="edge11" class="edge"><title>Question&#45;&gt;Choice</title>
<path fill="none" stroke="#d8f1a9" d="M670,-388.763C670,-381.616 670,-374.451 670,-367.362"/>
<ellipse fill="none" stroke="#d8f1a9" cx="670" cy="-392.883" rx="4" ry="4"/>
<polygon fill="#d8f1a9" stroke="#d8f1a9" points="670,-367.04 674.5,-357.04 670,-362.04 670,-357.04 670,-357.04 670,-357.04 670,-362.04 665.5,-357.04 670,-367.04 670,-367.04"/>
</g>
<!-- Test -->
<g id="node15" class="node"><title>Test</title>
<path fill="none" stroke="black" d="M690,-706.5C690,-706.5 822,-706.5 822,-706.5 828,-706.5 834,-712.5 834,-718.5 834,-718.5 834,-815.5 834,-815.5 834,-821.5 828,-827.5 822,-827.5 822,-827.5 690,-827.5 690,-827.5 684,-827.5 678,-821.5 678,-815.5 678,-815.5 678,-718.5 678,-718.5 678,-712.5 684,-706.5 690,-706.5"/>
<text text-anchor="middle" x="756" y="-812.3" font-family="Times,serif" font-size="14.00">Test</text>
<polyline fill="none" stroke="black" points="678,-804.5 834,-804.5 "/>
<text text-anchor="start" x="686" y="-789.3" font-family="Times,serif" font-size="14.00">id :INTEGER</text>
<text text-anchor="start" x="686" y="-774.3" font-family="Times,serif" font-size="14.00">name :varchar</text>
<text text-anchor="start" x="686" y="-759.3" font-family="Times,serif" font-size="14.00">description :varchar</text>
<text text-anchor="start" x="686" y="-744.3" font-family="Times,serif" font-size="14.00">question_number :integer</text>
<text text-anchor="start" x="686" y="-729.3" font-family="Times,serif" font-size="14.00">created_at :datetime</text>
<text text-anchor="start" x="686" y="-714.3" font-family="Times,serif" font-size="14.00">updated_at :datetime</text>
</g>
<!-- Test&#45;&gt;Question -->
<g id="edge13" class="edge"><title>Test&#45;&gt;Question</title>
<path fill="none" stroke="#b15938" d="M733.24,-698.513C726.42,-678.292 718.72,-655.462 711.1,-632.867"/>
<ellipse fill="none" stroke="#b15938" cx="734.559" cy="-702.424" rx="4.00001" ry="4.00001"/>
<polygon fill="#b15938" stroke="#b15938" points="711.038,-632.683 712.106,-621.769 709.44,-627.945 707.842,-623.207 707.842,-623.207 707.842,-623.207 709.44,-627.945 703.578,-624.645 711.038,-632.683 711.038,-632.683"/>
</g>
<!-- TestSession -->
<g id="node16" class="node"><title>TestSession</title>
<path fill="none" stroke="black" d="M814.5,-449.5C814.5,-449.5 921.5,-449.5 921.5,-449.5 927.5,-449.5 933.5,-455.5 933.5,-461.5 933.5,-461.5 933.5,-558.5 933.5,-558.5 933.5,-564.5 927.5,-570.5 921.5,-570.5 921.5,-570.5 814.5,-570.5 814.5,-570.5 808.5,-570.5 802.5,-564.5 802.5,-558.5 802.5,-558.5 802.5,-461.5 802.5,-461.5 802.5,-455.5 808.5,-449.5 814.5,-449.5"/>
<text text-anchor="middle" x="868" y="-555.3" font-family="Times,serif" font-size="14.00">TestSession</text>
<polyline fill="none" stroke="black" points="802.5,-547.5 933.5,-547.5 "/>
<text text-anchor="start" x="810.5" y="-532.3" font-family="Times,serif" font-size="14.00">id :INTEGER</text>
<text text-anchor="start" x="810.5" y="-517.3" font-family="Times,serif" font-size="14.00">user_id :integer</text>
<text text-anchor="start" x="810.5" y="-502.3" font-family="Times,serif" font-size="14.00">test_id :integer</text>
<text text-anchor="start" x="810.5" y="-487.3" font-family="Times,serif" font-size="14.00">result :integer</text>
<text text-anchor="start" x="810.5" y="-472.3" font-family="Times,serif" font-size="14.00">created_at :datetime</text>
<text text-anchor="start" x="810.5" y="-457.3" font-family="Times,serif" font-size="14.00">updated_at :datetime</text>
</g>
<!-- Test&#45;&gt;TestSession -->
<g id="edge12" class="edge"><title>Test&#45;&gt;TestSession</title>
<path fill="none" stroke="#5257f8" d="M785.681,-698.422C801.739,-661.862 821.534,-616.794 837.688,-580.015"/>
<ellipse fill="none" stroke="#5257f8" cx="783.868" cy="-702.552" rx="4.00001" ry="4.00001"/>
<polygon fill="#5257f8" stroke="#5257f8" points="837.69,-580.009 845.832,-572.663 839.701,-575.431 841.712,-570.853 841.712,-570.853 841.712,-570.853 839.701,-575.431 837.592,-569.043 837.69,-580.009 837.69,-580.009"/>
</g>
<!-- UserAnswer -->
<g id="node18" class="node"><title>UserAnswer</title>
<path fill="none" stroke="black" d="M808.5,-176C808.5,-176 927.5,-176 927.5,-176 933.5,-176 939.5,-182 939.5,-188 939.5,-188 939.5,-330 939.5,-330 939.5,-336 933.5,-342 927.5,-342 927.5,-342 808.5,-342 808.5,-342 802.5,-342 796.5,-336 796.5,-330 796.5,-330 796.5,-188 796.5,-188 796.5,-182 802.5,-176 808.5,-176"/>
<text text-anchor="middle" x="868" y="-326.8" font-family="Times,serif" font-size="14.00">UserAnswer</text>
<polyline fill="none" stroke="black" points="796.5,-319 939.5,-319 "/>
<text text-anchor="start" x="804.5" y="-303.8" font-family="Times,serif" font-size="14.00">id :INTEGER</text>
<text text-anchor="start" x="804.5" y="-288.8" font-family="Times,serif" font-size="14.00">user_id :integer</text>
<text text-anchor="start" x="804.5" y="-273.8" font-family="Times,serif" font-size="14.00">question_id :integer</text>
<text text-anchor="start" x="804.5" y="-258.8" font-family="Times,serif" font-size="14.00">choice_id :integer</text>
<text text-anchor="start" x="804.5" y="-243.8" font-family="Times,serif" font-size="14.00">choice_self :varchar</text>
<text text-anchor="start" x="804.5" y="-228.8" font-family="Times,serif" font-size="14.00">is_correct :boolean</text>
<text text-anchor="start" x="804.5" y="-213.8" font-family="Times,serif" font-size="14.00">test_session_id :integer</text>
<text text-anchor="start" x="804.5" y="-198.8" font-family="Times,serif" font-size="14.00">created_at :datetime</text>
<text text-anchor="start" x="804.5" y="-183.8" font-family="Times,serif" font-size="14.00">updated_at :datetime</text>
</g>
<!-- TestSession&#45;&gt;UserAnswer -->
<g id="edge14" class="edge"><title>TestSession&#45;&gt;UserAnswer</title>
<path fill="none" stroke="#c166ca" d="M868,-441.309C868,-413.961 868,-381.957 868,-352.514"/>
<ellipse fill="none" stroke="#c166ca" cx="868" cy="-445.358" rx="4" ry="4"/>
<polygon fill="#c166ca" stroke="#c166ca" points="868,-352.218 872.5,-342.218 868,-347.218 868,-342.218 868,-342.218 868,-342.218 868,-347.218 863.5,-342.218 868,-352.218 868,-352.218"/>
</g>
<!-- User -->
<g id="node17" class="node"><title>User</title>
<path fill="none" stroke="black" d="M910.5,-676.5C910.5,-676.5 1041.5,-676.5 1041.5,-676.5 1047.5,-676.5 1053.5,-682.5 1053.5,-688.5 1053.5,-688.5 1053.5,-845.5 1053.5,-845.5 1053.5,-851.5 1047.5,-857.5 1041.5,-857.5 1041.5,-857.5 910.5,-857.5 910.5,-857.5 904.5,-857.5 898.5,-851.5 898.5,-845.5 898.5,-845.5 898.5,-688.5 898.5,-688.5 898.5,-682.5 904.5,-676.5 910.5,-676.5"/>
<text text-anchor="middle" x="976" y="-842.3" font-family="Times,serif" font-size="14.00">User</text>
<polyline fill="none" stroke="black" points="898.5,-834.5 1053.5,-834.5 "/>
<text text-anchor="start" x="906.5" y="-819.3" font-family="Times,serif" font-size="14.00">id :INTEGER</text>
<text text-anchor="start" x="906.5" y="-804.3" font-family="Times,serif" font-size="14.00">name :varchar</text>
<text text-anchor="start" x="906.5" y="-789.3" font-family="Times,serif" font-size="14.00">login :varchar</text>
<text text-anchor="start" x="906.5" y="-774.3" font-family="Times,serif" font-size="14.00">password_digest :varchar</text>
<text text-anchor="start" x="906.5" y="-759.3" font-family="Times,serif" font-size="14.00">email :varchar</text>
<text text-anchor="start" x="906.5" y="-744.3" font-family="Times,serif" font-size="14.00">profession_id :integer</text>
<text text-anchor="start" x="906.5" y="-729.3" font-family="Times,serif" font-size="14.00">rating :integer</text>
<text text-anchor="start" x="906.5" y="-714.3" font-family="Times,serif" font-size="14.00">group :integer</text>
<text text-anchor="start" x="906.5" y="-699.3" font-family="Times,serif" font-size="14.00">created_at :datetime</text>
<text text-anchor="start" x="906.5" y="-684.3" font-family="Times,serif" font-size="14.00">updated_at :datetime</text>
</g>
<!-- User&#45;&gt;TestSession -->
<g id="edge15" class="edge"><title>User&#45;&gt;TestSession</title>
<path fill="none" stroke="#5907c3" d="M934.922,-669.011C922.402,-639.448 908.896,-607.561 897.319,-580.226"/>
<ellipse fill="none" stroke="#5907c3" cx="936.515" cy="-672.772" rx="4.00002" ry="4.00002"/>
<polygon fill="#5907c3" stroke="#5907c3" points="897.209,-579.967 897.453,-569.003 895.259,-575.363 893.309,-570.758 893.309,-570.758 893.309,-570.758 895.259,-575.363 889.166,-572.513 897.209,-579.967 897.209,-579.967"/>
</g>
<!-- Survey::Attempt -->
<g id="node19" class="node"><title>Survey::Attempt</title>
<ellipse fill="none" stroke="black" cx="1021" cy="-510" rx="69.3156" ry="18"/>
<text text-anchor="middle" x="1021" y="-506.3" font-family="Times,serif" font-size="14.00">Survey::Attempt</text>
</g>
<!-- User&#45;&gt;Survey::Attempt -->
<g id="edge16" class="edge"><title>User&#45;&gt;Survey::Attempt</title>
<path fill="none" stroke="#30249f" d="M993.209,-668.485C1001.44,-621.833 1010.68,-569.504 1016.16,-538.451"/>
<ellipse fill="none" stroke="#30249f" cx="992.497" cy="-672.516" rx="4.00001" ry="4.00001"/>
<polygon fill="#30249f" stroke="#30249f" points="1016.19,-538.246 1022.36,-529.181 1017.06,-533.323 1017.93,-528.399 1017.93,-528.399 1017.93,-528.399 1017.06,-533.323 1013.5,-527.617 1016.19,-538.246 1016.19,-538.246"/>
<text text-anchor="middle" x="1044.5" y="-646.3" font-family="Times,serif" font-size="14.00">survey_tentatives</text>
</g>
</g>
</svg>
