<?xml version="1.0" encoding="UTF-8" standalone="no"?>
<!DOCTYPE svg PUBLIC "-//W3C//DTD SVG 1.1//EN"
 "http://www.w3.org/Graphics/SVG/1.1/DTD/svg11.dtd">
<!-- Generated by graphviz version 2.36.0 (20140111.2315)
 -->
<!-- Title: models_diagram Pages: 1 -->
<svg width="848pt" height="322pt"
 viewBox="0.00 0.00 848.00 322.00" xmlns="http://www.w3.org/2000/svg" xmlns:xlink="http://www.w3.org/1999/xlink">
<g id="graph0" class="graph" transform="scale(1 1) rotate(0) translate(4 318)">
<title>models_diagram</title>
<polygon fill="none" stroke="none" points="-4,4 -4,-318 844,-318 844,4 -4,4"/>
<!-- _diagram_info -->
<g id="node1" class="node"><title>_diagram_info</title>
<text text-anchor="start" x="71" y="-299.6" font-family="Times,serif" font-size="13.00">Models diagram</text>
<text text-anchor="start" x="71" y="-285.6" font-family="Times,serif" font-size="13.00">Date: Dec 11 2015 &#45; 04:37</text>
<text text-anchor="start" x="71" y="-271.6" font-family="Times,serif" font-size="13.00">Migration version: 20151211020557</text>
<text text-anchor="start" x="71" y="-257.6" font-family="Times,serif" font-size="13.00">Generated by RailRoady 1.4.2</text>
<text text-anchor="start" x="71" y="-243.6" font-family="Times,serif" font-size="13.00">http://railroady.prestonlee.com</text>
</g>
<!-- Accountability -->
<g id="node2" class="node"><title>Accountability</title>
<ellipse fill="none" stroke="black" cx="63" cy="-18" rx="63.0666" ry="18"/>
<text text-anchor="middle" x="63" y="-14.3" font-family="Times,serif" font-size="14.00">Accountability</text>
</g>
<!-- Attainment -->
<g id="node3" class="node"><title>Attainment</title>
<ellipse fill="none" stroke="black" cx="346" cy="-275" rx="50.5427" ry="18"/>
<text text-anchor="middle" x="346" y="-271.3" font-family="Times,serif" font-size="14.00">Attainment</text>
</g>
<!-- Competence -->
<g id="node5" class="node"><title>Competence</title>
<ellipse fill="none" stroke="black" cx="346" cy="-166" rx="55.3682" ry="18"/>
<text text-anchor="middle" x="346" y="-162.3" font-family="Times,serif" font-size="14.00">Competence</text>
</g>
<!-- Attainment&#45;&gt;Competence -->
<g id="edge1" class="edge"><title>Attainment&#45;&gt;Competence</title>
<path fill="none" stroke="#d0e380" d="M346,-246.611C346,-230.613 346,-210.489 346,-194.476"/>
<polygon fill="#d0e380" stroke="#d0e380" points="346,-246.809 341.5,-256.809 346,-251.809 346,-256.809 346,-256.809 346,-256.809 346,-251.809 350.5,-256.809 346,-246.809 346,-246.809"/>
<polygon fill="#d0e380" stroke="#d0e380" points="346,-194.149 350.5,-184.149 346,-189.149 346,-184.149 346,-184.149 346,-184.149 346,-189.149 341.5,-184.149 346,-194.149 346,-194.149"/>
</g>
<!-- Choice -->
<g id="node4" class="node"><title>Choice</title>
<ellipse fill="none" stroke="black" cx="510" cy="-92" rx="35.6194" ry="18"/>
<text text-anchor="middle" x="510" y="-88.3" font-family="Times,serif" font-size="14.00">Choice</text>
</g>
<!-- Knowledge -->
<g id="node8" class="node"><title>Knowledge</title>
<ellipse fill="none" stroke="black" cx="181" cy="-92" rx="51.0191" ry="18"/>
<text text-anchor="middle" x="181" y="-88.3" font-family="Times,serif" font-size="14.00">Knowledge</text>
</g>
<!-- Competence&#45;&gt;Knowledge -->
<g id="edge5" class="edge"><title>Competence&#45;&gt;Knowledge</title>
<path fill="none" stroke="#e4f52d" d="M304.792,-147.018C279.241,-135.869 246.572,-121.613 221.21,-110.546"/>
<polygon fill="#e4f52d" stroke="#e4f52d" points="305.021,-147.118 312.387,-155.242 309.604,-149.118 314.186,-151.118 314.186,-151.118 314.186,-151.118 309.604,-149.118 315.986,-146.993 305.021,-147.118 305.021,-147.118"/>
<polygon fill="#e4f52d" stroke="#e4f52d" points="221.043,-110.474 213.678,-102.35 216.461,-108.474 211.878,-106.474 211.878,-106.474 211.878,-106.474 216.461,-108.474 210.078,-110.598 221.043,-110.474 221.043,-110.474"/>
</g>
<!-- Profession -->
<g id="node9" class="node"><title>Profession</title>
<ellipse fill="none" stroke="black" cx="298" cy="-92" rx="48.1437" ry="18"/>
<text text-anchor="middle" x="298" y="-88.3" font-family="Times,serif" font-size="14.00">Profession</text>
</g>
<!-- Competence&#45;&gt;Profession -->
<g id="edge3" class="edge"><title>Competence&#45;&gt;Profession</title>
<path fill="none" stroke="#416a84" d="M329.264,-139.896C324.562,-132.844 319.45,-125.175 314.748,-118.122"/>
<polygon fill="#416a84" stroke="#416a84" points="329.32,-139.98 331.123,-150.797 332.094,-144.141 334.867,-148.301 334.867,-148.301 334.867,-148.301 332.094,-144.141 338.611,-145.805 329.32,-139.98 329.32,-139.98"/>
<polygon fill="#416a84" stroke="#416a84" points="314.619,-117.929 312.817,-107.112 311.846,-113.769 309.072,-109.609 309.072,-109.609 309.072,-109.609 311.846,-113.769 305.328,-112.105 314.619,-117.929 314.619,-117.929"/>
</g>
<!-- Skill -->
<g id="node13" class="node"><title>Skill</title>
<ellipse fill="none" stroke="black" cx="391" cy="-92" rx="26.949" ry="18"/>
<text text-anchor="middle" x="391" y="-88.3" font-family="Times,serif" font-size="14.00">Skill</text>
</g>
<!-- Competence&#45;&gt;Skill -->
<g id="edge4" class="edge"><title>Competence&#45;&gt;Skill</title>
<path fill="none" stroke="#db2477" d="M361.769,-139.77C366.244,-132.609 371.111,-124.823 375.566,-117.694"/>
<polygon fill="#db2477" stroke="#db2477" points="361.737,-139.821 352.621,-145.916 359.087,-144.061 356.437,-148.301 356.437,-148.301 356.437,-148.301 359.087,-144.061 360.253,-150.686 361.737,-139.821 361.737,-139.821"/>
<polygon fill="#db2477" stroke="#db2477" points="375.629,-117.593 384.745,-111.498 378.279,-113.353 380.929,-109.113 380.929,-109.113 380.929,-109.113 378.279,-113.353 377.113,-106.728 375.629,-117.593 375.629,-117.593"/>
</g>
<!-- Task -->
<g id="node14" class="node"><title>Task</title>
<ellipse fill="none" stroke="black" cx="446" cy="-18" rx="27.4223" ry="18"/>
<text text-anchor="middle" x="446" y="-14.3" font-family="Times,serif" font-size="14.00">Task</text>
</g>
<!-- Competence&#45;&gt;Task -->
<g id="edge2" class="edge"><title>Competence&#45;&gt;Task</title>
<path fill="none" stroke="#8c3786" d="M384.417,-147.142C399.879,-138.1 416.502,-125.677 427,-110 439.595,-91.1916 444.092,-65.6779 445.584,-46.4515"/>
<ellipse fill="none" stroke="#8c3786" cx="380.911" cy="-149.105" rx="4.00002" ry="4.00002"/>
<polygon fill="#8c3786" stroke="#8c3786" points="445.597,-46.2132 450.638,-36.4749 445.871,-41.2207 446.145,-36.2282 446.145,-36.2282 446.145,-36.2282 445.871,-41.2207 441.652,-35.9816 445.597,-46.2132 445.597,-46.2132"/>
</g>
<!-- Discipline -->
<g id="node6" class="node"><title>Discipline</title>
<ellipse fill="none" stroke="black" cx="181" cy="-166" rx="46.1964" ry="18"/>
<text text-anchor="middle" x="181" y="-162.3" font-family="Times,serif" font-size="14.00">Discipline</text>
</g>
<!-- Discipline&#45;&gt;Knowledge -->
<g id="edge6" class="edge"><title>Discipline&#45;&gt;Knowledge</title>
<path fill="none" stroke="#4d6e36" d="M181,-139.792C181,-133.58 181,-126.896 181,-120.579"/>
<ellipse fill="none" stroke="#4d6e36" cx="181" cy="-143.937" rx="4" ry="4"/>
<polygon fill="#4d6e36" stroke="#4d6e36" points="181,-120.441 185.5,-110.441 181,-115.441 181,-110.441 181,-110.441 181,-110.441 181,-115.441 176.5,-110.441 181,-120.441 181,-120.441"/>
</g>
<!-- Feedback -->
<g id="node7" class="node"><title>Feedback</title>
<ellipse fill="none" stroke="black" cx="796" cy="-275" rx="44.2946" ry="18"/>
<text text-anchor="middle" x="796" y="-271.3" font-family="Times,serif" font-size="14.00">Feedback</text>
</g>
<!-- Profession&#45;&gt;Accountability -->
<g id="edge8" class="edge"><title>Profession&#45;&gt;Accountability</title>
<path fill="none" stroke="#ba48d1" d="M254.317,-77.6162C214.053,-65.2801 154.354,-46.9892 112.376,-34.1279"/>
<ellipse fill="none" stroke="#ba48d1" cx="258.228" cy="-78.8146" rx="4.00001" ry="4.00001"/>
<ellipse fill="#ba48d1" stroke="#ba48d1" cx="108.315" cy="-32.8837" rx="4.00001" ry="4.00001"/>
</g>
<!-- Qualification -->
<g id="node10" class="node"><title>Qualification</title>
<ellipse fill="none" stroke="black" cx="201" cy="-18" rx="57.2927" ry="18"/>
<text text-anchor="middle" x="201" y="-14.3" font-family="Times,serif" font-size="14.00">Qualification</text>
</g>
<!-- Profession&#45;&gt;Qualification -->
<g id="edge7" class="edge"><title>Profession&#45;&gt;Qualification</title>
<path fill="none" stroke="#4da335" d="M270.653,-70.7009C257.581,-60.9982 241.96,-49.403 228.826,-39.6547"/>
<ellipse fill="none" stroke="#4da335" cx="274.217" cy="-73.3466" rx="4.00002" ry="4.00002"/>
<ellipse fill="#4da335" stroke="#4da335" cx="225.424" cy="-37.1292" rx="4.00002" ry="4.00002"/>
</g>
<!-- Responsibility -->
<g id="node12" class="node"><title>Responsibility</title>
<ellipse fill="none" stroke="black" cx="338" cy="-18" rx="61.6163" ry="18"/>
<text text-anchor="middle" x="338" y="-14.3" font-family="Times,serif" font-size="14.00">Responsibility</text>
</g>
<!-- Profession&#45;&gt;Responsibility -->
<g id="edge9" class="edge"><title>Profession&#45;&gt;Responsibility</title>
<path fill="none" stroke="#8a30ce" d="M311.215,-67.2129C315.451,-59.5877 320.148,-51.1332 324.411,-43.4608"/>
<ellipse fill="none" stroke="#8a30ce" cx="309.22" cy="-70.8041" rx="4.00002" ry="4.00002"/>
<ellipse fill="#8a30ce" stroke="#8a30ce" cx="326.553" cy="-39.6053" rx="4.00002" ry="4.00002"/>
</g>
<!-- Profession&#45;&gt;Task -->
<g id="edge10" class="edge"><title>Profession&#45;&gt;Task</title>
<path fill="none" stroke="#612be1" d="M333.532,-73.7141C358.499,-61.5682 391.557,-45.4857 415.364,-33.9042"/>
<ellipse fill="none" stroke="#612be1" cx="329.783" cy="-75.538" rx="4.00002" ry="4.00002"/>
<polygon fill="#612be1" stroke="#612be1" points="415.639,-33.7702 426.6,-33.4421 420.135,-31.5829 424.631,-29.3955 424.631,-29.3955 424.631,-29.3955 420.135,-31.5829 422.663,-25.349 415.639,-33.7702 415.639,-33.7702"/>
</g>
<!-- Question -->
<g id="node11" class="node"><title>Question</title>
<ellipse fill="none" stroke="black" cx="510" cy="-166" rx="42.3701" ry="18"/>
<text text-anchor="middle" x="510" y="-162.3" font-family="Times,serif" font-size="14.00">Question</text>
</g>
<!-- Question&#45;&gt;Choice -->
<g id="edge11" class="edge"><title>Question&#45;&gt;Choice</title>
<path fill="none" stroke="#800939" d="M510,-139.792C510,-133.58 510,-126.896 510,-120.579"/>
<ellipse fill="none" stroke="#800939" cx="510" cy="-143.937" rx="4" ry="4"/>
<polygon fill="#800939" stroke="#800939" points="510,-120.441 514.5,-110.441 510,-115.441 510,-110.441 510,-110.441 510,-110.441 510,-115.441 505.5,-110.441 510,-120.441 510,-120.441"/>
</g>
<!-- Test -->
<g id="node15" class="node"><title>Test</title>
<ellipse fill="none" stroke="black" cx="567" cy="-275" rx="27" ry="18"/>
<text text-anchor="middle" x="567" y="-271.3" font-family="Times,serif" font-size="14.00">Test</text>
</g>
<!-- Test&#45;&gt;Question -->
<g id="edge13" class="edge"><title>Test&#45;&gt;Question</title>
<path fill="none" stroke="#3f427f" d="M554.462,-250.463C545.388,-233.431 533.129,-210.418 523.782,-192.871"/>
<ellipse fill="none" stroke="#3f427f" cx="556.462" cy="-254.219" rx="4.00002" ry="4.00002"/>
<polygon fill="#3f427f" stroke="#3f427f" points="523.628,-192.583 522.898,-181.642 521.278,-188.17 518.927,-183.757 518.927,-183.757 518.927,-183.757 521.278,-188.17 514.955,-185.873 523.628,-192.583 523.628,-192.583"/>
</g>
<!-- TestSession -->
<g id="node16" class="node"><title>TestSession</title>
<ellipse fill="none" stroke="black" cx="623" cy="-166" rx="52.4675" ry="18"/>
<text text-anchor="middle" x="623" y="-162.3" font-family="Times,serif" font-size="14.00">TestSession</text>
</g>
<!-- Test&#45;&gt;TestSession -->
<g id="edge12" class="edge"><title>Test&#45;&gt;TestSession</title>
<path fill="none" stroke="#1bdb86" d="M579.318,-250.463C588.232,-233.431 600.276,-210.418 609.46,-192.871"/>
<ellipse fill="none" stroke="#1bdb86" cx="577.36" cy="-254.205" rx="4.00002" ry="4.00002"/>
<polygon fill="#1bdb86" stroke="#1bdb86" points="609.593,-192.617 618.217,-185.844 611.911,-188.187 614.23,-183.757 614.23,-183.757 614.23,-183.757 611.911,-188.187 610.243,-181.671 609.593,-192.617 609.593,-192.617"/>
</g>
<!-- UserAnswer -->
<g id="node18" class="node"><title>UserAnswer</title>
<ellipse fill="none" stroke="black" cx="623" cy="-92" rx="54.3924" ry="18"/>
<text text-anchor="middle" x="623" y="-88.3" font-family="Times,serif" font-size="14.00">UserAnswer</text>
</g>
<!-- TestSession&#45;&gt;UserAnswer -->
<g id="edge14" class="edge"><title>TestSession&#45;&gt;UserAnswer</title>
<path fill="none" stroke="#60e1ba" d="M623,-139.792C623,-133.58 623,-126.896 623,-120.579"/>
<ellipse fill="none" stroke="#60e1ba" cx="623" cy="-143.937" rx="4" ry="4"/>
<polygon fill="#60e1ba" stroke="#60e1ba" points="623,-120.441 627.5,-110.441 623,-115.441 623,-110.441 623,-110.441 623,-110.441 623,-115.441 618.5,-110.441 623,-120.441 623,-120.441"/>
</g>
<!-- User -->
<g id="node17" class="node"><title>User</title>
<ellipse fill="none" stroke="black" cx="707" cy="-275" rx="26.949" ry="18"/>
<text text-anchor="middle" x="707" y="-271.3" font-family="Times,serif" font-size="14.00">User</text>
</g>
<!-- User&#45;&gt;TestSession -->
<g id="edge15" class="edge"><title>User&#45;&gt;TestSession</title>
<path fill="none" stroke="#e2e7f7" d="M689.877,-252.189C676.077,-234.61 656.675,-209.896 642.321,-191.611"/>
<ellipse fill="none" stroke="#e2e7f7" cx="692.495" cy="-255.523" rx="4.00002" ry="4.00002"/>
<polygon fill="#e2e7f7" stroke="#e2e7f7" points="642.294,-191.577 639.659,-180.933 639.207,-187.644 636.119,-183.711 636.119,-183.711 636.119,-183.711 639.207,-187.644 632.58,-186.49 642.294,-191.577 642.294,-191.577"/>
</g>
<!-- Survey::Attempt -->
<g id="node19" class="node"><title>Survey::Attempt</title>
<ellipse fill="none" stroke="black" cx="763" cy="-166" rx="69.3156" ry="18"/>
<text text-anchor="middle" x="763" y="-162.3" font-family="Times,serif" font-size="14.00">Survey::Attempt</text>
</g>
<!-- User&#45;&gt;Survey::Attempt -->
<g id="edge16" class="edge"><title>User&#45;&gt;Survey::Attempt</title>
<path fill="none" stroke="#054146" d="M719.295,-250.509C728.151,-233.586 740.106,-210.744 749.274,-193.226"/>
<ellipse fill="none" stroke="#054146" cx="717.36" cy="-254.205" rx="4.00002" ry="4.00002"/>
<polygon fill="#054146" stroke="#054146" points="749.406,-192.973 758.03,-186.2 751.725,-188.543 754.043,-184.114 754.043,-184.114 754.043,-184.114 751.725,-188.543 750.056,-182.027 749.406,-192.973 749.406,-192.973"/>
<text text-anchor="middle" x="790.5" y="-206.3" font-family="Times,serif" font-size="14.00">survey_tentatives</text>
</g>
</g>
</svg>
