<?xml version="1.0" encoding="UTF-8" standalone="no"?>
<!DOCTYPE svg PUBLIC "-//W3C//DTD SVG 1.1//EN"
 "http://www.w3.org/Graphics/SVG/1.1/DTD/svg11.dtd">
<!-- Generated by graphviz version 2.36.0 (20140111.2315)
 -->
<!-- Title: models_diagram Pages: 1 -->
<svg width="803pt" height="700pt"
 viewBox="0.00 0.00 803.00 700.00" xmlns="http://www.w3.org/2000/svg" xmlns:xlink="http://www.w3.org/1999/xlink">
<g id="graph0" class="graph" transform="scale(1 1) rotate(0) translate(4 696)">
<title>models_diagram</title>
<polygon fill="none" stroke="none" points="-4,4 -4,-696 799,-696 799,4 -4,4"/>
<!-- _diagram_info -->
<g id="node1" class="node"><title>_diagram_info</title>
<text text-anchor="start" x="56" y="-625.6" font-family="Times,serif" font-size="13.00">Models diagram</text>
<text text-anchor="start" x="56" y="-611.6" font-family="Times,serif" font-size="13.00">Date: Dec 14 2015 &#45; 12:45</text>
<text text-anchor="start" x="56" y="-597.6" font-family="Times,serif" font-size="13.00">Migration version: 20151211083555</text>
<text text-anchor="start" x="56" y="-583.6" font-family="Times,serif" font-size="13.00">Generated by RailRoady 1.4.2</text>
<text text-anchor="start" x="56" y="-569.6" font-family="Times,serif" font-size="13.00">http://railroady.prestonlee.com</text>
</g>
<!-- Accountability -->
<g id="node2" class="node"><title>Accountability</title>
<path fill="none" stroke="black" d="M13.5,-8C13.5,-8 124.5,-8 124.5,-8 130.5,-8 136.5,-14 136.5,-20 136.5,-20 136.5,-102 136.5,-102 136.5,-108 130.5,-114 124.5,-114 124.5,-114 13.5,-114 13.5,-114 7.5,-114 1.5,-108 1.5,-102 1.5,-102 1.5,-20 1.5,-20 1.5,-14 7.5,-8 13.5,-8"/>
<text text-anchor="middle" x="69" y="-98.8" font-family="Times,serif" font-size="14.00">Accountability</text>
<polyline fill="none" stroke="black" points="1.5,-91 136.5,-91 "/>
<text text-anchor="start" x="9.5" y="-75.8" font-family="Times,serif" font-size="14.00">id :INTEGER</text>
<text text-anchor="start" x="9.5" y="-60.8" font-family="Times,serif" font-size="14.00">description :text</text>
<text text-anchor="start" x="9.5" y="-45.8" font-family="Times,serif" font-size="14.00">profession_id :integer</text>
<text text-anchor="start" x="9.5" y="-30.8" font-family="Times,serif" font-size="14.00">created_at :datetime</text>
<text text-anchor="start" x="9.5" y="-15.8" font-family="Times,serif" font-size="14.00">updated_at :datetime</text>
</g>
<!-- Attainment -->
<g id="node3" class="node"><title>Attainment</title>
<path fill="none" stroke="black" d="M292.5,-555.5C292.5,-555.5 399.5,-555.5 399.5,-555.5 405.5,-555.5 411.5,-561.5 411.5,-567.5 411.5,-567.5 411.5,-634.5 411.5,-634.5 411.5,-640.5 405.5,-646.5 399.5,-646.5 399.5,-646.5 292.5,-646.5 292.5,-646.5 286.5,-646.5 280.5,-640.5 280.5,-634.5 280.5,-634.5 280.5,-567.5 280.5,-567.5 280.5,-561.5 286.5,-555.5 292.5,-555.5"/>
<text text-anchor="middle" x="346" y="-631.3" font-family="Times,serif" font-size="14.00">Attainment</text>
<polyline fill="none" stroke="black" points="280.5,-623.5 411.5,-623.5 "/>
<text text-anchor="start" x="288.5" y="-608.3" font-family="Times,serif" font-size="14.00">id :INTEGER</text>
<text text-anchor="start" x="288.5" y="-593.3" font-family="Times,serif" font-size="14.00">description :varchar</text>
<text text-anchor="start" x="288.5" y="-578.3" font-family="Times,serif" font-size="14.00">created_at :datetime</text>
<text text-anchor="start" x="288.5" y="-563.3" font-family="Times,serif" font-size="14.00">updated_at :datetime</text>
</g>
<!-- Competence -->
<g id="node4" class="node"><title>Competence</title>
<path fill="none" stroke="black" d="M292.5,-351C292.5,-351 399.5,-351 399.5,-351 405.5,-351 411.5,-357 411.5,-363 411.5,-363 411.5,-445 411.5,-445 411.5,-451 405.5,-457 399.5,-457 399.5,-457 292.5,-457 292.5,-457 286.5,-457 280.5,-451 280.5,-445 280.5,-445 280.5,-363 280.5,-363 280.5,-357 286.5,-351 292.5,-351"/>
<text text-anchor="middle" x="346" y="-441.8" font-family="Times,serif" font-size="14.00">Competence</text>
<polyline fill="none" stroke="black" points="280.5,-434 411.5,-434 "/>
<text text-anchor="start" x="288.5" y="-418.8" font-family="Times,serif" font-size="14.00">id :INTEGER</text>
<text text-anchor="start" x="288.5" y="-403.8" font-family="Times,serif" font-size="14.00">name :varchar</text>
<text text-anchor="start" x="288.5" y="-388.8" font-family="Times,serif" font-size="14.00">code :varchar</text>
<text text-anchor="start" x="288.5" y="-373.8" font-family="Times,serif" font-size="14.00">created_at :datetime</text>
<text text-anchor="start" x="288.5" y="-358.8" font-family="Times,serif" font-size="14.00">updated_at :datetime</text>
</g>
<!-- Attainment&#45;&gt;Competence -->
<g id="edge1" class="edge"><title>Attainment&#45;&gt;Competence</title>
<path fill="none" stroke="#d5fa8d" d="M346,-545.003C346,-520.787 346,-492.222 346,-467.23"/>
<polygon fill="#d5fa8d" stroke="#d5fa8d" points="346,-545.263 341.5,-555.263 346,-550.263 346,-555.263 346,-555.263 346,-555.263 346,-550.263 350.5,-555.263 346,-545.263 346,-545.263"/>
<polygon fill="#d5fa8d" stroke="#d5fa8d" points="346,-467.124 350.5,-457.124 346,-462.124 346,-457.124 346,-457.124 346,-457.124 346,-462.124 341.5,-457.124 346,-467.124 346,-467.124"/>
</g>
<!-- Knowledge -->
<g id="node7" class="node"><title>Knowledge</title>
<path fill="none" stroke="black" d="M11.5,-183C11.5,-183 118.5,-183 118.5,-183 124.5,-183 130.5,-189 130.5,-195 130.5,-195 130.5,-277 130.5,-277 130.5,-283 124.5,-289 118.5,-289 118.5,-289 11.5,-289 11.5,-289 5.5,-289 -0.5,-283 -0.5,-277 -0.5,-277 -0.5,-195 -0.5,-195 -0.5,-189 5.5,-183 11.5,-183"/>
<text text-anchor="middle" x="65" y="-273.8" font-family="Times,serif" font-size="14.00">Knowledge</text>
<polyline fill="none" stroke="black" points="-0.5,-266 130.5,-266 "/>
<text text-anchor="start" x="7.5" y="-250.8" font-family="Times,serif" font-size="14.00">id :INTEGER</text>
<text text-anchor="start" x="7.5" y="-235.8" font-family="Times,serif" font-size="14.00">description :varchar</text>
<text text-anchor="start" x="7.5" y="-220.8" font-family="Times,serif" font-size="14.00">discipline_id :integer</text>
<text text-anchor="start" x="7.5" y="-205.8" font-family="Times,serif" font-size="14.00">created_at :datetime</text>
<text text-anchor="start" x="7.5" y="-190.8" font-family="Times,serif" font-size="14.00">updated_at :datetime</text>
</g>
<!-- Competence&#45;&gt;Knowledge -->
<g id="edge5" class="edge"><title>Competence&#45;&gt;Knowledge</title>
<path fill="none" stroke="#b77cf2" d="M270.848,-377.858C229.909,-362.271 179.492,-339.889 139,-312 132.07,-307.227 125.242,-301.748 118.702,-295.97"/>
<polygon fill="#b77cf2" stroke="#b77cf2" points="270.87,-377.866 278.654,-385.59 275.552,-379.621 280.234,-381.376 280.234,-381.376 280.234,-381.376 275.552,-379.621 281.813,-377.163 270.87,-377.866 270.87,-377.866"/>
<polygon fill="#b77cf2" stroke="#b77cf2" points="118.545,-295.827 114.206,-285.756 114.856,-292.451 111.168,-289.075 111.168,-289.075 111.168,-289.075 114.856,-292.451 108.13,-292.395 118.545,-295.827 118.545,-295.827"/>
</g>
<!-- Profession -->
<g id="node8" class="node"><title>Profession</title>
<path fill="none" stroke="black" d="M160.5,-160.5C160.5,-160.5 343.5,-160.5 343.5,-160.5 349.5,-160.5 355.5,-166.5 355.5,-172.5 355.5,-172.5 355.5,-299.5 355.5,-299.5 355.5,-305.5 349.5,-311.5 343.5,-311.5 343.5,-311.5 160.5,-311.5 160.5,-311.5 154.5,-311.5 148.5,-305.5 148.5,-299.5 148.5,-299.5 148.5,-172.5 148.5,-172.5 148.5,-166.5 154.5,-160.5 160.5,-160.5"/>
<text text-anchor="middle" x="252" y="-296.3" font-family="Times,serif" font-size="14.00">Profession</text>
<polyline fill="none" stroke="black" points="148.5,-288.5 355.5,-288.5 "/>
<text text-anchor="start" x="156.5" y="-273.3" font-family="Times,serif" font-size="14.00">id :INTEGER</text>
<text text-anchor="start" x="156.5" y="-258.3" font-family="Times,serif" font-size="14.00">min_level_of_compet_test :integer</text>
<text text-anchor="start" x="156.5" y="-243.3" font-family="Times,serif" font-size="14.00">profession_name :varchar</text>
<text text-anchor="start" x="156.5" y="-228.3" font-family="Times,serif" font-size="14.00">level :integer</text>
<text text-anchor="start" x="156.5" y="-213.3" font-family="Times,serif" font-size="14.00">mission :text</text>
<text text-anchor="start" x="156.5" y="-198.3" font-family="Times,serif" font-size="14.00">summary_statement :text</text>
<text text-anchor="start" x="156.5" y="-183.3" font-family="Times,serif" font-size="14.00">created_at :datetime</text>
<text text-anchor="start" x="156.5" y="-168.3" font-family="Times,serif" font-size="14.00">updated_at :datetime</text>
</g>
<!-- Competence&#45;&gt;Profession -->
<g id="edge3" class="edge"><title>Competence&#45;&gt;Profession</title>
<path fill="none" stroke="#743874" d="M311.465,-342.013C307.536,-335.074 303.482,-327.915 299.423,-320.748"/>
<polygon fill="#743874" stroke="#743874" points="311.588,-342.23 312.6,-353.149 314.052,-346.581 316.516,-350.932 316.516,-350.932 316.516,-350.932 314.052,-346.581 320.432,-348.715 311.588,-342.23 311.588,-342.23"/>
<polygon fill="#743874" stroke="#743874" points="299.217,-320.383 298.205,-309.464 296.753,-316.032 294.289,-311.681 294.289,-311.681 294.289,-311.681 296.753,-316.032 290.374,-313.899 299.217,-320.383 299.217,-320.383"/>
</g>
<!-- Skill -->
<g id="node11" class="node"><title>Skill</title>
<path fill="none" stroke="black" d="M385.5,-190.5C385.5,-190.5 492.5,-190.5 492.5,-190.5 498.5,-190.5 504.5,-196.5 504.5,-202.5 504.5,-202.5 504.5,-269.5 504.5,-269.5 504.5,-275.5 498.5,-281.5 492.5,-281.5 492.5,-281.5 385.5,-281.5 385.5,-281.5 379.5,-281.5 373.5,-275.5 373.5,-269.5 373.5,-269.5 373.5,-202.5 373.5,-202.5 373.5,-196.5 379.5,-190.5 385.5,-190.5"/>
<text text-anchor="middle" x="439" y="-266.3" font-family="Times,serif" font-size="14.00">Skill</text>
<polyline fill="none" stroke="black" points="373.5,-258.5 504.5,-258.5 "/>
<text text-anchor="start" x="381.5" y="-243.3" font-family="Times,serif" font-size="14.00">id :INTEGER</text>
<text text-anchor="start" x="381.5" y="-228.3" font-family="Times,serif" font-size="14.00">description :varchar</text>
<text text-anchor="start" x="381.5" y="-213.3" font-family="Times,serif" font-size="14.00">created_at :datetime</text>
<text text-anchor="start" x="381.5" y="-198.3" font-family="Times,serif" font-size="14.00">updated_at :datetime</text>
</g>
<!-- Competence&#45;&gt;Skill -->
<g id="edge4" class="edge"><title>Competence&#45;&gt;Skill</title>
<path fill="none" stroke="#92bb0c" d="M380.078,-342.172C389.554,-325.259 399.772,-307.02 408.995,-290.557"/>
<polygon fill="#92bb0c" stroke="#92bb0c" points="380.058,-342.208 371.245,-348.733 377.614,-346.57 375.171,-350.932 375.171,-350.932 375.171,-350.932 377.614,-346.57 379.096,-353.131 380.058,-342.208 380.058,-342.208"/>
<polygon fill="#92bb0c" stroke="#92bb0c" points="409.118,-290.337 417.932,-283.812 411.562,-285.975 414.006,-281.613 414.006,-281.613 414.006,-281.613 411.562,-285.975 410.08,-279.413 409.118,-290.337 409.118,-290.337"/>
</g>
<!-- Task -->
<g id="node12" class="node"><title>Task</title>
<path fill="none" stroke="black" d="M473,-0.5C473,-0.5 593,-0.5 593,-0.5 599,-0.5 605,-6.5 605,-12.5 605,-12.5 605,-109.5 605,-109.5 605,-115.5 599,-121.5 593,-121.5 593,-121.5 473,-121.5 473,-121.5 467,-121.5 461,-115.5 461,-109.5 461,-109.5 461,-12.5 461,-12.5 461,-6.5 467,-0.5 473,-0.5"/>
<text text-anchor="middle" x="533" y="-106.3" font-family="Times,serif" font-size="14.00">Task</text>
<polyline fill="none" stroke="black" points="461,-98.5 605,-98.5 "/>
<text text-anchor="start" x="469" y="-83.3" font-family="Times,serif" font-size="14.00">id :INTEGER</text>
<text text-anchor="start" x="469" y="-68.3" font-family="Times,serif" font-size="14.00">profession_id :integer</text>
<text text-anchor="start" x="469" y="-53.3" font-family="Times,serif" font-size="14.00">competence_id :integer</text>
<text text-anchor="start" x="469" y="-38.3" font-family="Times,serif" font-size="14.00">description :varchar</text>
<text text-anchor="start" x="469" y="-23.3" font-family="Times,serif" font-size="14.00">created_at :datetime</text>
<text text-anchor="start" x="469" y="-8.3" font-family="Times,serif" font-size="14.00">updated_at :datetime</text>
</g>
<!-- Competence&#45;&gt;Task -->
<g id="edge2" class="edge"><title>Competence&#45;&gt;Task</title>
<path fill="none" stroke="#337215" d="M419.51,-381.188C453.72,-367.107 491.52,-345.084 513,-312 547.526,-258.822 549.245,-185.254 544.309,-131.698"/>
<ellipse fill="none" stroke="#337215" cx="415.534" cy="-382.769" rx="4.00001" ry="4.00001"/>
<polygon fill="#337215" stroke="#337215" points="544.294,-131.551 547.755,-121.146 543.786,-126.577 543.279,-121.603 543.279,-121.603 543.279,-121.603 543.786,-126.577 538.802,-122.06 544.294,-131.551 544.294,-131.551"/>
</g>
<!-- Discipline -->
<g id="node5" class="node"><title>Discipline</title>
<path fill="none" stroke="black" d="M11.5,-351C11.5,-351 118.5,-351 118.5,-351 124.5,-351 130.5,-357 130.5,-363 130.5,-363 130.5,-445 130.5,-445 130.5,-451 124.5,-457 118.5,-457 118.5,-457 11.5,-457 11.5,-457 5.5,-457 -0.5,-451 -0.5,-445 -0.5,-445 -0.5,-363 -0.5,-363 -0.5,-357 5.5,-351 11.5,-351"/>
<text text-anchor="middle" x="65" y="-441.8" font-family="Times,serif" font-size="14.00">Discipline</text>
<polyline fill="none" stroke="black" points="-0.5,-434 130.5,-434 "/>
<text text-anchor="start" x="7.5" y="-418.8" font-family="Times,serif" font-size="14.00">id :INTEGER</text>
<text text-anchor="start" x="7.5" y="-403.8" font-family="Times,serif" font-size="14.00">name :varchar</text>
<text text-anchor="start" x="7.5" y="-388.8" font-family="Times,serif" font-size="14.00">description :text</text>
<text text-anchor="start" x="7.5" y="-373.8" font-family="Times,serif" font-size="14.00">created_at :datetime</text>
<text text-anchor="start" x="7.5" y="-358.8" font-family="Times,serif" font-size="14.00">updated_at :datetime</text>
</g>
<!-- Discipline&#45;&gt;Knowledge -->
<g id="edge6" class="edge"><title>Discipline&#45;&gt;Knowledge</title>
<path fill="none" stroke="#09d64b" d="M65,-342.483C65,-328.42 65,-313.425 65,-299.286"/>
<ellipse fill="none" stroke="#09d64b" cx="65" cy="-346.932" rx="4" ry="4"/>
<polygon fill="#09d64b" stroke="#09d64b" points="65.0001,-299.168 69.5,-289.168 65,-294.168 65,-289.168 65,-289.168 65,-289.168 65,-294.168 60.5,-289.168 65.0001,-299.168 65.0001,-299.168"/>
</g>
<!-- Feedback -->
<g id="node6" class="node"><title>Feedback</title>
<path fill="none" stroke="black" d="M441.5,-533C441.5,-533 548.5,-533 548.5,-533 554.5,-533 560.5,-539 560.5,-545 560.5,-545 560.5,-657 560.5,-657 560.5,-663 554.5,-669 548.5,-669 548.5,-669 441.5,-669 441.5,-669 435.5,-669 429.5,-663 429.5,-657 429.5,-657 429.5,-545 429.5,-545 429.5,-539 435.5,-533 441.5,-533"/>
<text text-anchor="middle" x="495" y="-653.8" font-family="Times,serif" font-size="14.00">Feedback</text>
<polyline fill="none" stroke="black" points="429.5,-646 560.5,-646 "/>
<text text-anchor="start" x="437.5" y="-630.8" font-family="Times,serif" font-size="14.00">id :INTEGER</text>
<text text-anchor="start" x="437.5" y="-615.8" font-family="Times,serif" font-size="14.00">name :varchar</text>
<text text-anchor="start" x="437.5" y="-600.8" font-family="Times,serif" font-size="14.00">email :varchar</text>
<text text-anchor="start" x="437.5" y="-585.8" font-family="Times,serif" font-size="14.00">content :varchar</text>
<text text-anchor="start" x="437.5" y="-570.8" font-family="Times,serif" font-size="14.00">ip :varchar</text>
<text text-anchor="start" x="437.5" y="-555.8" font-family="Times,serif" font-size="14.00">created_at :datetime</text>
<text text-anchor="start" x="437.5" y="-540.8" font-family="Times,serif" font-size="14.00">updated_at :datetime</text>
</g>
<!-- Profession&#45;&gt;Accountability -->
<g id="edge8" class="edge"><title>Profession&#45;&gt;Accountability</title>
<path fill="none" stroke="#ef816f" d="M166.875,-154.527C154.544,-142.87 142.058,-131.066 130.318,-119.968"/>
<ellipse fill="none" stroke="#ef816f" cx="170.157" cy="-157.629" rx="4.00002" ry="4.00002"/>
<ellipse fill="#ef816f" stroke="#ef816f" cx="127.159" cy="-116.981" rx="4.00002" ry="4.00002"/>
</g>
<!-- Qualification -->
<g id="node9" class="node"><title>Qualification</title>
<path fill="none" stroke="black" d="M166.5,-8C166.5,-8 277.5,-8 277.5,-8 283.5,-8 289.5,-14 289.5,-20 289.5,-20 289.5,-102 289.5,-102 289.5,-108 283.5,-114 277.5,-114 277.5,-114 166.5,-114 166.5,-114 160.5,-114 154.5,-108 154.5,-102 154.5,-102 154.5,-20 154.5,-20 154.5,-14 160.5,-8 166.5,-8"/>
<text text-anchor="middle" x="222" y="-98.8" font-family="Times,serif" font-size="14.00">Qualification</text>
<polyline fill="none" stroke="black" points="154.5,-91 289.5,-91 "/>
<text text-anchor="start" x="162.5" y="-75.8" font-family="Times,serif" font-size="14.00">id :INTEGER</text>
<text text-anchor="start" x="162.5" y="-60.8" font-family="Times,serif" font-size="14.00">name :varchar</text>
<text text-anchor="start" x="162.5" y="-45.8" font-family="Times,serif" font-size="14.00">profession_id :integer</text>
<text text-anchor="start" x="162.5" y="-30.8" font-family="Times,serif" font-size="14.00">created_at :datetime</text>
<text text-anchor="start" x="162.5" y="-15.8" font-family="Times,serif" font-size="14.00">updated_at :datetime</text>
</g>
<!-- Profession&#45;&gt;Qualification -->
<g id="edge7" class="edge"><title>Profession&#45;&gt;Qualification</title>
<path fill="none" stroke="#d1012c" d="M237.663,-152.325C235.906,-142.19 234.136,-131.986 232.451,-122.268"/>
<ellipse fill="none" stroke="#d1012c" cx="238.376" cy="-156.436" rx="4.00001" ry="4.00001"/>
<ellipse fill="#d1012c" stroke="#d1012c" cx="231.741" cy="-118.174" rx="4.00001" ry="4.00001"/>
</g>
<!-- Responsibility -->
<g id="node10" class="node"><title>Responsibility</title>
<path fill="none" stroke="black" d="M319.5,-8C319.5,-8 430.5,-8 430.5,-8 436.5,-8 442.5,-14 442.5,-20 442.5,-20 442.5,-102 442.5,-102 442.5,-108 436.5,-114 430.5,-114 430.5,-114 319.5,-114 319.5,-114 313.5,-114 307.5,-108 307.5,-102 307.5,-102 307.5,-20 307.5,-20 307.5,-14 313.5,-8 319.5,-8"/>
<text text-anchor="middle" x="375" y="-98.8" font-family="Times,serif" font-size="14.00">Responsibility</text>
<polyline fill="none" stroke="black" points="307.5,-91 442.5,-91 "/>
<text text-anchor="start" x="315.5" y="-75.8" font-family="Times,serif" font-size="14.00">id :INTEGER</text>
<text text-anchor="start" x="315.5" y="-60.8" font-family="Times,serif" font-size="14.00">description :text</text>
<text text-anchor="start" x="315.5" y="-45.8" font-family="Times,serif" font-size="14.00">profession_id :integer</text>
<text text-anchor="start" x="315.5" y="-30.8" font-family="Times,serif" font-size="14.00">created_at :datetime</text>
<text text-anchor="start" x="315.5" y="-15.8" font-family="Times,serif" font-size="14.00">updated_at :datetime</text>
</g>
<!-- Profession&#45;&gt;Responsibility -->
<g id="edge9" class="edge"><title>Profession&#45;&gt;Responsibility</title>
<path fill="none" stroke="#93864b" d="M309.737,-153.793C317.656,-142.654 325.66,-131.397 333.219,-120.765"/>
<ellipse fill="none" stroke="#93864b" cx="307.373" cy="-157.117" rx="4.00002" ry="4.00002"/>
<ellipse fill="#93864b" stroke="#93864b" cx="335.545" cy="-117.493" rx="4.00002" ry="4.00002"/>
</g>
<!-- Profession&#45;&gt;Task -->
<g id="edge10" class="edge"><title>Profession&#45;&gt;Task</title>
<path fill="none" stroke="#1550f3" d="M362.7,-160.715C363.134,-160.475 363.567,-160.237 364,-160 401.01,-139.736 414.42,-143.029 451,-122 451.301,-121.827 451.602,-121.653 451.904,-121.478"/>
<ellipse fill="none" stroke="#1550f3" cx="359.125" cy="-162.726" rx="4.00002" ry="4.00002"/>
<polygon fill="#1550f3" stroke="#1550f3" points="452.118,-121.349 463.006,-120.042 456.401,-118.768 460.684,-116.188 460.684,-116.188 460.684,-116.188 456.401,-118.768 458.361,-112.333 452.118,-121.349 452.118,-121.349"/>
</g>
<!-- User -->
<g id="node13" class="node"><title>User</title>
<path fill="none" stroke="black" d="M590.5,-510.5C590.5,-510.5 721.5,-510.5 721.5,-510.5 727.5,-510.5 733.5,-516.5 733.5,-522.5 733.5,-522.5 733.5,-679.5 733.5,-679.5 733.5,-685.5 727.5,-691.5 721.5,-691.5 721.5,-691.5 590.5,-691.5 590.5,-691.5 584.5,-691.5 578.5,-685.5 578.5,-679.5 578.5,-679.5 578.5,-522.5 578.5,-522.5 578.5,-516.5 584.5,-510.5 590.5,-510.5"/>
<text text-anchor="middle" x="656" y="-676.3" font-family="Times,serif" font-size="14.00">User</text>
<polyline fill="none" stroke="black" points="578.5,-668.5 733.5,-668.5 "/>
<text text-anchor="start" x="586.5" y="-653.3" font-family="Times,serif" font-size="14.00">id :INTEGER</text>
<text text-anchor="start" x="586.5" y="-638.3" font-family="Times,serif" font-size="14.00">name :varchar</text>
<text text-anchor="start" x="586.5" y="-623.3" font-family="Times,serif" font-size="14.00">login :varchar</text>
<text text-anchor="start" x="586.5" y="-608.3" font-family="Times,serif" font-size="14.00">password_digest :varchar</text>
<text text-anchor="start" x="586.5" y="-593.3" font-family="Times,serif" font-size="14.00">email :varchar</text>
<text text-anchor="start" x="586.5" y="-578.3" font-family="Times,serif" font-size="14.00">profession_id :integer</text>
<text text-anchor="start" x="586.5" y="-563.3" font-family="Times,serif" font-size="14.00">rating :integer</text>
<text text-anchor="start" x="586.5" y="-548.3" font-family="Times,serif" font-size="14.00">group :integer</text>
<text text-anchor="start" x="586.5" y="-533.3" font-family="Times,serif" font-size="14.00">created_at :datetime</text>
<text text-anchor="start" x="586.5" y="-518.3" font-family="Times,serif" font-size="14.00">updated_at :datetime</text>
</g>
<!-- TestSession -->
<g id="node14" class="node"><title>TestSession</title>
<ellipse fill="none" stroke="black" cx="586" cy="-404" rx="52.4675" ry="18"/>
<text text-anchor="middle" x="586" y="-400.3" font-family="Times,serif" font-size="14.00">TestSession</text>
</g>
<!-- User&#45;&gt;TestSession -->
<g id="edge11" class="edge"><title>User&#45;&gt;TestSession</title>
<path fill="none" stroke="#8f1308" d="M621.032,-502.59C611.611,-476.344 602.186,-450.09 595.489,-431.435"/>
<ellipse fill="none" stroke="#8f1308" cx="622.517" cy="-506.725" rx="4.00001" ry="4.00001"/>
<polygon fill="#8f1308" stroke="#8f1308" points="595.445,-431.312 596.302,-420.38 593.756,-426.606 592.067,-421.9 592.067,-421.9 592.067,-421.9 593.756,-426.606 587.831,-423.421 595.445,-431.312 595.445,-431.312"/>
</g>
<!-- Survey::Attempt -->
<g id="node15" class="node"><title>Survey::Attempt</title>
<ellipse fill="none" stroke="black" cx="726" cy="-404" rx="69.3156" ry="18"/>
<text text-anchor="middle" x="726" y="-400.3" font-family="Times,serif" font-size="14.00">Survey::Attempt</text>
</g>
<!-- User&#45;&gt;Survey::Attempt -->
<g id="edge12" class="edge"><title>User&#45;&gt;Survey::Attempt</title>
<path fill="none" stroke="#5c3967" d="M690.951,-502.637C700.316,-476.548 709.686,-450.445 716.379,-431.802"/>
<ellipse fill="none" stroke="#5c3967" cx="689.483" cy="-506.725" rx="4.00001" ry="4.00001"/>
<polygon fill="#5c3967" stroke="#5c3967" points="716.426,-431.671 724.04,-423.78 718.115,-426.965 719.804,-422.259 719.804,-422.259 719.804,-422.259 718.115,-426.965 715.569,-420.739 716.426,-431.671 716.426,-431.671"/>
<text text-anchor="middle" x="746.5" y="-480.3" font-family="Times,serif" font-size="14.00">survey_tentatives</text>
</g>
</g>
</svg>
